<svg width="288" height="499" viewBox="0 0 288 499" fill="none" xmlns="http://www.w3.org/2000/svg">
<g style="mix-blend-mode:multiply">
<path d="M220.936 52.7862L221.03 52.0781C221.186 51.1414 221.229 50.1845 221.308 49.2323L221.315 48.744C221.5 47.3115 221.607 45.87 221.636 44.4259C221.712 40.3183 221.134 36.2249 219.922 32.2996C219.781 31.8969 219.643 31.4263 219.458 30.9178C219.274 30.4093 219.071 29.8722 218.823 29.2869C218.575 28.7016 218.33 28.0904 218.041 27.4524C217.752 26.8144 217.467 26.1506 217.102 25.4971C216.929 25.1692 216.753 24.8354 216.571 24.5009C216.389 24.1664 216.226 23.8133 216.017 23.4858L214.791 21.5134C214.351 20.8659 213.909 20.2338 213.468 19.5914L213.13 19.1257L212.775 18.6735L212.071 17.7911C211.836 17.5073 211.623 17.2056 211.38 16.9366C211.137 16.6676 210.898 16.4097 210.669 16.1531C210.211 15.6399 209.751 15.1475 209.322 14.6908C208.536 13.9175 207.692 13.2058 206.797 12.5617C206.434 12.319 206.251 12.1947 205.989 12.0336C205.726 11.8725 205.596 11.8185 205.233 11.623C204.33 11.1349 202.84 10.4794 202.397 10.2839C202.185 10.182 201.971 10.0905 201.769 9.99L201.154 9.7085C200.761 9.53541 200.374 9.40504 200.004 9.26122C198.741 8.80441 197.451 8.42587 196.141 8.12777C193.538 7.51913 190.861 7.2877 188.192 7.44057C183.215 8.01278 178.355 9.34187 173.779 11.3819C169.349 13.3188 165.232 15.9049 161.564 19.0551C160.638 19.8527 159.741 20.7016 158.886 21.598C158.01 22.4958 157.183 23.4394 156.407 24.425C155.609 25.4306 154.872 26.4834 154.2 27.5776C153.504 28.6972 152.879 29.8599 152.329 31.0586C151.764 32.2939 151.283 33.5655 150.887 34.8651C150.485 36.2034 150.182 37.5698 149.982 38.9531C149.889 39.6561 149.827 40.358 149.765 41.0651C149.718 41.4167 149.707 41.773 149.695 42.1079C149.682 42.4428 149.694 42.8284 149.688 43.1854C149.683 43.5424 149.692 43.9118 149.691 44.2746C149.69 44.6375 149.742 45.002 149.767 45.3683C149.792 45.7346 149.88 47.761 149.945 48.6586C150.026 49.3533 150.166 50.3239 150.399 51.4174C151.152 55.7907 152.647 60.0028 154.82 63.8715C155.17 64.444 155.522 64.8852 155.522 64.8852C156.404 66.1648 157.332 67.4875 158.4 68.7918C159.504 70.141 160.694 71.4166 161.964 72.6104C164.648 75.174 167.701 77.3206 171.021 78.9784C174.439 80.6823 178.147 81.726 181.951 82.0549C183.802 82.1993 185.662 82.1591 187.505 81.9348C189.25 81.7185 190.969 81.3319 192.639 80.7805C193.432 80.5071 194.159 80.2196 194.516 80.0723C194.755 79.9726 195.52 79.6796 195.762 79.596C196.183 79.4362 196.29 79.3821 196.735 79.1992C197.18 79.0163 197.729 78.8051 198.221 78.6232C198.713 78.4413 199.225 78.2304 199.718 78.0014C201.1 77.301 201.598 76.9517 201.96 76.7209C202.322 76.4902 203.222 75.9731 203.557 75.7441C204.837 74.8619 205.012 74.8852 206.23 73.9948C206.641 73.7075 207.33 73.194 207.74 72.875C207.943 72.7388 208.471 72.367 208.654 72.2494C209.023 71.9722 209.117 71.8532 209.462 71.6308C209.64 71.5228 209.851 71.3142 210.136 71.11C210.287 71.0038 210.444 70.8931 210.603 70.7669L211.093 70.3586L212.142 69.4721C212.492 69.1714 212.804 68.8394 213.116 68.5494C213.428 68.2594 213.715 67.9977 213.932 67.7898C214.149 67.5819 214.301 67.3864 214.457 67.244C214.737 66.8813 214.996 66.5897 215.286 66.2284C215.576 65.8671 215.803 65.4658 216.074 65.0863C216.62 64.3434 217.045 63.5161 217.53 62.7178C217.752 62.3107 217.95 61.8898 218.163 61.471L218.473 60.8441C218.585 60.6328 218.662 60.4115 218.753 60.1975C218.937 59.7642 219.115 59.3303 219.293 58.9015C219.471 58.4727 219.601 58.0061 219.756 57.5584C219.827 57.3364 219.909 57.1159 219.981 56.8887L220.166 56.2084C220.285 55.7507 220.424 55.2958 220.523 54.8302L220.808 53.4372L220.855 53.0806L220.936 52.7862Z" fill="#FFD333"/>
</g>
<g style="mix-blend-mode:multiply">
<path d="M112.145 197.119C128.568 200.178 155.16 203.882 170.956 207.031L223.423 214.775C224.393 210.955 225.166 207.15 225.743 203.358C226.797 196.212 227.62 188.068 228.193 179.118C228.845 169.143 227.899 159.127 225.39 149.451C222.908 140.165 219.503 131.15 215.225 122.542C210.443 112.812 203.213 103.457 193.75 94.7574C192.398 93.526 191.032 92.2925 189.65 91.1359C187.485 89.2824 184.823 88.107 181.995 87.7559C179.167 87.4047 176.298 87.8935 173.745 89.1612C167.575 92.2177 161.955 96.2783 157.115 101.177C152.699 105.641 148.713 109.798 145.265 113.544C145.056 113.774 144.845 114.014 144.645 114.256C141.358 118.291 137.948 122.982 134.5 128.195C134.362 128.403 134.229 128.617 134.105 128.837C129.254 137.009 125.499 143.395 122.837 147.993C122.661 148.29 122.495 148.589 122.343 148.901L121.727 150.134C115.221 163.252 111.357 178.93 110.154 196.745L112.143 197.093" fill="#FFD333"/>
</g>
<g style="mix-blend-mode:multiply">
<g style="mix-blend-mode:multiply">
<path d="M252.45 337.021L252.639 336.332C252.922 335.42 253.093 334.483 253.302 333.545L253.38 333.064C253.757 331.67 254.059 330.256 254.283 328.829C254.915 324.769 254.895 320.635 254.225 316.581C254.14 316.163 254.068 315.678 253.957 315.156C253.847 314.633 253.69 314.06 253.552 313.422C253.414 312.784 253.226 312.17 253.025 311.504C252.824 310.837 252.634 310.131 252.359 309.439L251.97 308.375C251.836 308.019 251.721 307.647 251.557 307.299C251.244 306.591 250.934 305.868 250.618 305.148C250.302 304.429 249.918 303.761 249.567 303.07L249.297 302.558L249.005 302.066L248.428 301.097L247.865 300.153L247.262 299.279C246.878 298.708 246.489 298.158 246.126 297.647C245.455 296.777 244.718 295.96 243.921 295.203C243.602 294.91 243.43 294.765 243.193 294.565C242.956 294.365 242.834 294.299 242.501 294.056C241.671 293.455 240.284 292.598 239.878 292.346C239.675 292.22 239.476 292.095 239.29 291.968L238.711 291.636C238.347 291.406 237.979 291.229 237.638 291.033C236.446 290.41 235.218 289.862 233.959 289.39C232.845 288.958 231.704 288.602 230.543 288.322C229.109 287.974 227.649 287.741 226.177 287.626C221.17 287.522 216.176 288.182 211.367 289.582C206.713 290.894 202.281 292.896 198.22 295.521C197.194 296.185 196.191 296.905 195.222 297.677C194.234 298.45 193.287 299.272 192.383 300.142C191.456 301.029 190.585 301.973 189.774 302.967C188.055 305.022 186.617 307.297 185.499 309.731C184.919 311.003 184.434 312.316 184.047 313.659C183.861 314.338 183.705 315.025 183.551 315.723C183.457 316.065 183.393 316.415 183.335 316.745C183.277 317.076 183.236 317.459 183.189 317.787C183.142 318.115 183.094 318.507 183.044 318.867C182.994 319.226 182.996 319.594 182.971 319.96C182.946 320.327 182.76 322.341 182.703 323.239C182.693 323.945 182.695 324.919 182.778 326.034C182.916 330.498 183.822 334.905 185.456 339.061C185.72 339.675 186.008 340.159 186.008 340.159C186.683 341.54 187.449 342.983 188.33 344.42C189.245 345.904 190.251 347.329 191.343 348.687C193.656 351.589 196.39 354.13 199.453 356.225C202.609 358.375 206.141 359.91 209.866 360.75C211.68 361.147 213.529 361.36 215.385 361.385C217.143 361.412 218.899 361.262 220.627 360.937C221.449 360.779 222.21 360.588 222.583 360.49C222.834 360.424 223.631 360.237 223.881 360.193C224.321 360.086 224.46 360.054 224.899 359.931C225.338 359.809 225.937 359.676 226.454 359.564C226.972 359.452 227.497 359.309 228.019 359.144C228.833 358.864 229.632 358.542 230.414 358.18C230.767 358.034 231.765 357.61 232.127 357.434C233.519 356.735 233.685 356.78 235.024 356.039C235.464 355.814 236.221 355.4 236.673 355.135L237.658 354.638C238.064 354.419 238.17 354.308 238.541 354.139C238.731 354.056 238.971 353.873 239.286 353.711C239.444 353.625 239.62 353.538 239.793 353.439L240.329 353.1L241.495 352.339C241.882 352.093 242.237 351.802 242.591 351.558C242.944 351.315 243.258 351.098 243.497 350.915C243.737 350.732 243.921 350.572 244.09 350.45C244.416 350.129 244.713 349.875 245.051 349.552C245.388 349.228 245.67 348.873 245.985 348.532C246.627 347.865 247.161 347.103 247.75 346.378C248.029 346.011 248.278 345.615 248.546 345.229L248.943 344.651C249.078 344.455 249.182 344.251 249.307 344.053L250.015 342.836C250.233 342.415 250.445 341.997 250.655 341.568C250.759 341.364 250.872 341.152 250.968 340.94L251.245 340.286C251.424 339.849 251.624 339.417 251.79 338.971L252.256 337.628L252.35 337.286L252.45 337.021Z" fill="#4393EF"/>
</g>
<g style="mix-blend-mode:multiply">
<path d="M125.088 465.252C140.943 470.516 166.789 477.787 182.011 483.05L232.947 497.846C234.427 494.175 235.704 490.504 236.777 486.833C238.792 479.892 240.712 471.935 242.494 463.145C244.495 453.35 244.916 443.299 243.74 433.372C242.545 423.835 240.4 414.442 237.337 405.332C233.918 395.043 228.022 384.799 219.828 374.891C218.656 373.487 217.47 372.08 216.261 370.753C214.368 368.622 211.89 367.095 209.136 366.364C206.381 365.632 203.472 365.728 200.772 366.639C194.237 368.835 188.114 372.104 182.653 376.312C177.678 380.132 173.16 383.709 169.236 386.952C168.997 387.156 168.757 387.361 168.525 387.573C164.722 391.125 160.712 395.312 156.589 400.009C156.424 400.202 156.263 400.395 156.105 400.59C150.189 408.035 145.601 413.854 142.342 418.045C142.128 418.311 141.922 418.59 141.729 418.878L140.958 420.012C132.727 432.125 126.772 447.134 123.169 464.622L125.087 465.236" fill="#4393EF"/>
</g>
</g>
<g style="mix-blend-mode:multiply">
<g style="mix-blend-mode:multiply">
<path d="M88.7191 191.19L88.5191 190.502C88.2838 189.582 87.9377 188.692 87.6249 187.784L87.4349 187.335C87.0309 185.949 86.5515 184.586 85.9988 183.252C84.4075 179.465 82.2211 175.956 79.5222 172.859C79.2285 172.545 78.9163 172.171 78.5424 171.784L77.2987 170.552C76.8705 170.113 76.3582 169.655 75.8396 169.193C75.3211 168.73 74.7884 168.229 74.1884 167.784L73.302 167.083C72.9998 166.851 72.7032 166.596 72.3839 166.383C71.7523 165.941 71.1183 165.488 70.455 165.047C69.7916 164.606 69.0982 164.247 68.436 163.859L67.9392 163.569C67.7686 163.473 67.6002 163.387 67.4318 163.301L66.4304 162.78L65.4589 162.274L64.5038 161.818C63.8612 161.543 63.2564 161.271 62.6749 161.031C61.6499 160.645 60.5957 160.342 59.5223 160.125C59.0932 160.044 58.8716 160.007 58.5691 159.967C58.2666 159.927 58.1224 159.927 57.7097 159.896C56.6885 159.817 55.0605 159.819 54.5799 159.818L53.8832 159.807L53.2148 159.826C52.7873 159.824 52.375 159.867 51.9826 159.879C50.6342 159.959 49.2921 160.124 47.9644 160.372C46.7887 160.591 45.629 160.888 44.493 161.262C43.0883 161.717 41.7232 162.287 40.4112 162.965C36.0953 165.51 32.1927 168.699 28.8379 172.421C25.5702 175.986 22.8513 180.017 20.7705 184.382C20.2507 185.485 19.7766 186.626 19.3511 187.793C18.9195 188.968 18.5514 190.166 18.2482 191.38C17.9267 192.622 17.6792 193.882 17.507 195.154C17.3275 196.459 17.2292 197.773 17.2129 199.09C17.1975 200.448 17.2726 201.805 17.4377 203.153C17.6101 204.535 17.8854 205.902 18.2613 207.243C18.4449 207.929 18.6873 208.591 18.9217 209.265C19.0378 209.597 19.155 209.935 19.2791 210.254C19.4031 210.574 19.5695 210.917 19.7077 211.228L20.1521 212.224C20.3151 212.551 20.4872 212.871 20.6571 213.181C20.8269 213.49 21.7278 215.321 22.1538 216.113C22.5116 216.718 23.006 217.554 23.6835 218.445C26.1437 222.141 29.2176 225.388 32.7724 228.047C33.3177 228.412 33.8172 228.692 33.8172 228.692C35.1191 229.51 36.5295 230.335 38.0379 231.097C39.5929 231.88 41.1955 232.563 42.8363 233.145C46.3285 234.403 49.9895 235.129 53.6971 235.3C57.5119 235.475 61.3255 234.928 64.9371 233.687C66.689 233.071 68.3745 232.28 69.968 231.326C71.4759 230.423 72.891 229.373 74.1929 228.193C74.8094 227.624 75.3586 227.065 75.6275 226.808C75.8047 226.619 76.3883 226.047 76.5729 225.867C76.8979 225.55 76.9726 225.453 77.3128 225.132C77.6531 224.811 78.0596 224.38 78.4406 224.002C78.8216 223.624 79.1964 223.242 79.5531 222.827C80.5322 221.628 80.8489 221.104 81.0896 220.768C81.3303 220.432 81.9409 219.57 82.159 219.229C82.9765 217.926 83.1344 217.844 83.8852 216.529C84.1475 216.098 84.5691 215.348 84.8145 214.888L85.3918 213.948C85.623 213.545 85.6548 213.399 85.8842 213.06C86.0015 212.89 86.1104 212.609 86.2894 212.308C86.3823 212.149 86.4843 211.982 86.5789 211.806L86.8533 211.212L87.4564 209.978C87.6537 209.566 87.8035 209.133 87.9736 208.743L88.4102 207.722C88.5497 207.387 88.5889 207.202 88.6689 207.008C88.7848 206.566 88.9 206.193 89.0136 205.741C89.1272 205.289 89.1877 204.838 89.2493 204.391C89.45 203.487 89.5059 202.556 89.6235 201.639C89.6664 201.181 89.6754 200.714 89.6997 200.244L89.7317 199.543C89.7432 199.305 89.7243 199.074 89.7268 198.844C89.7183 198.371 89.7008 197.905 89.6934 197.436C89.686 196.968 89.6131 196.493 89.5729 196.021C89.5234 195.797 89.5339 195.554 89.5087 195.32L89.3976 194.623C89.2952 194.16 89.2641 193.681 89.1719 193.215L88.7883 191.479L88.7191 191.19Z" fill="#FF33A3"/>
</g>
<g style="mix-blend-mode:multiply">
<path d="M47.6741 367.212C63.9087 363.364 89.7486 355.988 105.46 352.453L156.572 338.298C155.91 334.407 155.078 330.617 154.058 326.923C152.13 319.958 149.589 312.178 146.485 303.758C143.046 294.374 138.126 285.6 131.912 277.772C125.894 270.285 119.142 263.418 111.756 257.276C103.442 250.312 93.0488 244.689 80.8661 240.561C79.1342 239.972 77.4124 239.428 75.6595 238.913C72.9289 238.095 70.0182 238.098 67.2896 238.922C64.561 239.746 62.1352 241.355 60.314 243.548C55.9076 248.847 52.4148 254.843 49.979 261.291C47.7368 267.164 45.7678 272.582 44.1262 277.404C44.0269 277.703 43.9338 278.007 43.8509 278.308C42.4822 283.326 41.2638 289 40.2218 295.158C40.1808 295.407 40.1449 295.655 40.1152 295.907C38.9973 305.347 38.1478 312.706 37.5668 317.986C37.5296 318.326 37.4987 318.669 37.4853 319.019L37.426 320.394C36.7812 335.019 39.6001 350.919 45.7091 367.694L47.6679 367.208" fill="#FF33A3"/>
</g>
</g>
</svg>
