<svg width="440" height="441" viewBox="0 0 440 441" fill="none" xmlns="http://www.w3.org/2000/svg">
<path d="M229.89 201.685H413.502V232.206H229.89V201.685Z" stroke="#414042" stroke-width="2" stroke-linecap="round" stroke-linejoin="round"/>
<path d="M240.089 232.207L204.378 435.585" stroke="#414042" stroke-width="2" stroke-linecap="round" stroke-linejoin="round"/>
<path d="M326.796 232.207L291.085 435.585" stroke="#414042" stroke-width="2" stroke-linecap="round" stroke-linejoin="round"/>
<path d="M403.289 232.207L439 435.585" stroke="#414042" stroke-width="2" stroke-linecap="round" stroke-linejoin="round"/>
<path d="M335.343 339.009L352.294 435.628" stroke="#414042" stroke-width="2" stroke-linecap="round" stroke-linejoin="round"/>
<path d="M319.657 272.882H232.95" stroke="#414042" stroke-width="2" stroke-linecap="round" stroke-linejoin="round"/>
<path d="M312.503 313.572H225.811" stroke="#414042" stroke-width="2" stroke-linecap="round" stroke-linejoin="round"/>
<path d="M417.582 313.572H336.995" stroke="#414042" stroke-width="2" stroke-linecap="round" stroke-linejoin="round"/>
<path d="M305.364 354.248H218.657" stroke="#414042" stroke-width="2" stroke-linecap="round" stroke-linejoin="round"/>
<path d="M298.225 394.867H211.518" stroke="#414042" stroke-width="2" stroke-linecap="round" stroke-linejoin="round"/>
<path d="M424.765 354.248H338.015" stroke="#414042" stroke-width="2" stroke-linecap="round" stroke-linejoin="round"/>
<path d="M431.861 394.867H345.154" stroke="#414042" stroke-width="2" stroke-linecap="round" stroke-linejoin="round"/>
<path d="M409.423 272.882H342.095" stroke="#414042" stroke-width="2" stroke-linecap="round" stroke-linejoin="round"/>
<path d="M183.592 438.049L166.641 233.51" stroke="#414042" stroke-width="2" stroke-linecap="round" stroke-linejoin="round"/>
<path d="M258.836 195.785C253.233 164.104 228.238 128.899 202.037 111.97C180.863 98.3065 165.564 100.842 161.585 101.715" stroke="#414042" stroke-width="2" stroke-linecap="round" stroke-linejoin="round"/>
<path d="M104.427 41.9613V41.2738C104.427 40.3571 104.427 39.4405 104.513 38.5239V38.0512C104.518 36.6637 104.595 35.2773 104.743 33.8977C105.197 29.9767 106.274 26.1527 107.932 22.5687C108.119 22.1963 108.306 21.7666 108.55 21.3083L109.354 19.8761C109.642 19.3461 109.986 18.8019 110.346 18.2433C110.698 17.6415 111.082 17.0583 111.495 16.496C111.696 16.1952 111.911 15.9087 112.127 15.608C112.342 15.3072 112.543 14.9921 112.788 14.7057L114.224 12.9583L115.776 11.254L116.149 10.8529L116.551 10.4662L117.356 9.72146L118.131 8.99101L118.907 8.33218C119.424 7.90251 119.913 7.48716 120.344 7.11478C121.214 6.47116 122.136 5.90106 123.102 5.41041C123.475 5.20989 123.662 5.12396 123.935 4.99506L124.71 4.70861C125.63 4.35055 127.138 3.92087 127.583 3.79197L128.23 3.59146L128.848 3.41959C129.25 3.30501 129.638 3.2334 129.997 3.14746C131.266 2.86709 132.552 2.66619 133.847 2.54592C134.969 2.4449 136.096 2.40664 137.222 2.43134C138.669 2.47578 140.11 2.63382 141.532 2.90398C146.179 4.08965 150.62 5.96796 154.704 8.47541C158.692 10.8802 162.299 13.8632 165.406 17.3267C166.196 18.2147 166.929 19.1313 167.647 20.0909C168.365 21.0505 169.084 22.0531 169.644 23.0986C170.271 24.1586 170.837 25.2537 171.339 26.3784C171.866 27.5321 172.317 28.7185 172.689 29.9304C173.074 31.1794 173.376 32.452 173.594 33.7402C173.797 35.068 173.912 36.4076 173.939 37.7505C173.939 38.4236 173.939 39.1111 173.867 39.7842C173.867 40.128 173.867 40.4717 173.867 40.8155L173.738 41.8467C173.738 42.1904 173.637 42.5341 173.594 42.8779C173.551 43.2216 173.451 43.5654 173.379 43.9091C173.307 44.2528 172.977 46.172 172.804 47.0171C172.632 47.8621 172.373 48.5782 172.014 49.5951C170.762 53.6622 168.819 57.4846 166.268 60.8955C165.852 61.3825 165.464 61.7692 165.464 61.7692C164.442 62.9474 163.358 64.0709 162.217 65.1349C160.991 66.2729 159.696 67.3347 158.339 68.3145C155.445 70.4151 152.255 72.0755 148.872 73.2414C145.389 74.4222 141.716 74.9467 138.041 74.7883C134.551 74.6123 131.132 73.7405 127.986 72.2245C127.253 71.8665 126.549 71.4941 126.276 71.3079L125.156 70.692L124.265 70.2194C123.82 69.9902 123.375 69.7324 122.915 69.4746C122.455 69.2168 122.01 68.9877 121.579 68.7012C120.344 67.8562 119.913 67.4552 119.597 67.269C119.281 67.0828 118.476 66.3953 118.16 66.1375C117.054 65.1636 116.882 65.1349 115.833 64.118C115.474 63.7886 114.885 63.2157 114.526 62.8577L113.736 62.1415C113.42 61.8408 113.348 61.7119 113.032 61.4541C112.716 61.1963 112.701 61.1103 112.457 60.8669L112.055 60.4945L111.61 59.9789L110.733 59.0049C110.432 58.6755 110.173 58.3175 109.915 58.0024L109.225 57.1717C109.01 56.9139 108.923 56.7563 108.794 56.5988C108.579 56.2121 108.363 55.897 108.133 55.5246C107.904 55.1522 107.731 54.7369 107.53 54.3358C107.099 53.5624 106.797 52.7174 106.438 51.8867C106.266 51.4713 106.137 51.0417 105.993 50.6263L105.763 49.9818C105.691 49.7813 105.648 49.5521 105.576 49.3373L105.232 48.034C105.145 47.59 105.045 47.146 104.959 46.702L104.829 46.0288L104.7 45.3986C104.7 44.9546 104.571 44.4963 104.528 44.0523L104.442 42.6201V42.2763L104.427 41.9613Z" fill="#FFD333"/>
<path d="M120.66 35.588V0.999268" stroke="#414042" stroke-width="2" stroke-linecap="round" stroke-linejoin="round"/>
<path d="M153.57 35.588V0.999268" stroke="#414042" stroke-width="2" stroke-linecap="round" stroke-linejoin="round"/>
<path d="M87.7495 35.5889H186.465" stroke="#414042" stroke-width="2" stroke-linecap="round" stroke-linejoin="round"/>
<path d="M101.899 90.2137C106.051 89.6122 112.731 89.4976 116.738 88.7815L163.151 86.9339C167.978 86.7477 172.891 86.5901 177.516 90.6291C182.142 94.668 186.523 103.605 188.434 117.04C189.956 127.738 189.77 139.956 189.554 151.6L187.96 235.959C186.767 255.437 182.989 260.622 175.606 262.713C171.21 263.973 159.431 264.26 155.007 264.016C138.07 263.114 122.341 267.368 106.037 263.601C100.836 262.398 95.033 260.307 91.6717 248.061C89.4307 239.683 88.8705 228.311 88.5114 217.512C87.6495 191.187 87.5489 160.222 88.1522 133.84C88.3964 122.812 88.1522 111.483 90.1346 102.216C92.117 92.9493 93.6109 90.9585 101.842 90.1707" fill="#FFD333"/>
<path d="M49.8407 225.174C43.1467 193.665 53.1016 151.729 71.0721 126.249C85.5662 105.682 100.707 102.331 104.729 101.657" stroke="#414042" stroke-width="2" stroke-linecap="round" stroke-linejoin="round"/>
<path d="M113.046 439.009L116.608 238.981" stroke="#414042" stroke-width="2" stroke-linecap="round" stroke-linejoin="round"/>
<path d="M1 248.663H94.5873V310.865H1V248.663Z" stroke="#414042" stroke-width="2" stroke-linecap="round" stroke-linejoin="round"/>
<path d="M69.6207 248.663V236.217C69.6207 234.568 68.9639 232.987 67.7947 231.821C66.6255 230.656 65.0398 230.001 63.3863 230.001H32.2001C30.5454 230.001 28.9581 230.655 27.7867 231.82C26.6152 232.986 25.9552 234.567 25.9514 236.217V248.663" stroke="#414042" stroke-width="2" stroke-linecap="round" stroke-linejoin="round"/>
<path d="M69.6209 267.397C67.4404 267.402 65.2995 267.979 63.4135 269.07C61.5274 270.161 59.9625 271.727 58.876 273.613H36.6966C35.3226 271.24 33.2018 269.385 30.663 268.337C28.1242 267.288 25.3094 267.104 22.6551 267.814C20.0007 268.523 17.6553 270.085 15.9824 272.259C14.3096 274.433 13.4028 277.096 13.4028 279.836C13.4028 282.575 14.3096 285.239 15.9824 287.412C17.6553 289.586 20.0007 291.149 22.6551 291.858C25.3094 292.567 28.1242 292.383 30.663 291.334C33.2018 290.286 35.3226 288.431 36.6966 286.059H58.876C59.9675 287.955 61.5414 289.531 63.4389 290.628C65.3364 291.724 67.4903 292.302 69.6834 292.303C71.8765 292.304 74.0311 291.729 75.9299 290.635C77.8286 289.541 79.4044 287.967 80.4981 286.071C81.5918 284.176 82.1648 282.027 82.1594 279.84C82.1539 277.654 81.57 275.507 80.4668 273.617C79.3636 271.728 77.7799 270.161 75.8757 269.077C73.9715 267.992 71.814 267.427 69.6209 267.44V267.397Z" stroke="#414042" stroke-width="2" stroke-linecap="round" stroke-linejoin="round"/>
<path d="M13.4829 279.772H25.9516" stroke="#414042" stroke-width="2" stroke-linecap="round" stroke-linejoin="round"/>
<path d="M69.6213 279.772H82.1044" stroke="#414042" stroke-width="2" stroke-linecap="round" stroke-linejoin="round"/>
</svg>
