<svg width="31" height="31" viewBox="0 0 31 31" fill="none" xmlns="http://www.w3.org/2000/svg">
<path d="M15.4596 10.5182C12.7053 10.5182 10.4576 12.7659 10.4576 15.5202C10.4576 18.2745 12.7053 20.5223 15.4596 20.5223C18.2139 20.5223 20.4616 18.2745 20.4616 15.5202C20.4616 12.7659 18.2139 10.5182 15.4596 10.5182ZM30.4619 15.5202C30.4619 13.4489 30.4807 11.3963 30.3644 9.32866C30.2481 6.92708 29.7002 4.79568 27.944 3.03953C26.1841 1.27962 24.0565 0.735514 21.6549 0.619188C19.5836 0.502862 17.531 0.521624 15.4633 0.521624C13.392 0.521624 11.3394 0.502862 9.27178 0.619188C6.8702 0.735514 4.7388 1.28337 2.98264 3.03953C1.22274 4.79943 0.67863 6.92708 0.562303 9.32866C0.445977 11.4 0.464739 13.4526 0.464739 15.5202C0.464739 17.5878 0.445977 19.6442 0.562303 21.7118C0.67863 24.1134 1.22649 26.2448 2.98264 28.0009C4.74255 29.7608 6.8702 30.3049 9.27178 30.4213C11.3431 30.5376 13.3957 30.5188 15.4633 30.5188C17.5347 30.5188 19.5873 30.5376 21.6549 30.4213C24.0565 30.3049 26.1879 29.7571 27.944 28.0009C29.704 26.241 30.2481 24.1134 30.3644 21.7118C30.4845 19.6442 30.4619 17.5916 30.4619 15.5202ZM15.4596 23.2165C11.2005 23.2165 7.76328 19.7793 7.76328 15.5202C7.76328 11.2612 11.2005 7.82392 15.4596 7.82392C19.7186 7.82392 23.1559 11.2612 23.1559 15.5202C23.1559 19.7793 19.7186 23.2165 15.4596 23.2165ZM23.4711 9.30615C22.4767 9.30615 21.6737 8.50312 21.6737 7.50871C21.6737 6.51431 22.4767 5.71128 23.4711 5.71128C24.4655 5.71128 25.2685 6.51431 25.2685 7.50871C25.2688 7.74484 25.2225 7.9787 25.1323 8.19691C25.0421 8.41512 24.9097 8.61339 24.7427 8.78035C24.5758 8.94732 24.3775 9.0797 24.1593 9.16993C23.9411 9.26015 23.7072 9.30644 23.4711 9.30615Z" fill="#1472E1"/>
</svg>
