<svg width="38" height="31" viewBox="0 0 38 31" fill="none" xmlns="http://www.w3.org/2000/svg">
<path d="M37.4636 4.08413C36.1056 4.66993 34.6278 5.09153 33.1056 5.25573C34.686 4.31684 35.8695 2.83354 36.434 1.08414C34.951 1.96634 33.3264 2.58495 31.6323 2.91254C30.9242 2.15555 30.0678 1.55251 29.1165 1.14097C28.1651 0.729439 27.1392 0.518237 26.1027 0.520526C21.9089 0.520526 18.5361 3.91993 18.5361 8.09153C18.5361 8.67733 18.6071 9.26313 18.7225 9.82673C12.4429 9.49833 6.84234 6.49833 3.11897 1.90514C2.44053 3.06394 2.08501 4.38336 2.08939 5.72614C2.08939 8.35336 3.42518 10.6699 5.46216 12.0324C4.26174 11.9851 3.08943 11.6551 2.04057 11.0693V11.1625C2.04057 14.8415 4.64116 17.8903 8.10713 18.5915C7.45636 18.7606 6.7869 18.847 6.11453 18.8489C5.62193 18.8489 5.15595 18.8001 4.68554 18.7335C5.64412 21.7335 8.43554 23.9125 11.7595 23.9835C9.15891 26.0205 5.90151 27.2187 2.36453 27.2187C1.72992 27.2187 1.14412 27.1965 0.536133 27.1255C3.89116 29.2779 7.87193 30.5205 12.1589 30.5205C26.0761 30.5205 33.6914 18.9909 33.6914 8.98354C33.6914 8.65514 33.6914 8.32673 33.6692 7.99833C35.1426 6.91993 36.434 5.58413 37.4636 4.08413Z" fill="#1472E1"/>
</svg>
