<svg width="31" height="31" viewBox="0 0 31 31" fill="none" xmlns="http://www.w3.org/2000/svg">
<path d="M29.3361 0.520508H1.73613C1.07238 0.520508 0.536133 1.05676 0.536133 1.72051V29.3205C0.536133 29.9843 1.07238 30.5205 1.73613 30.5205H29.3361C29.9999 30.5205 30.5361 29.9843 30.5361 29.3205V1.72051C30.5361 1.05676 29.9999 0.520508 29.3361 0.520508ZM25.8711 9.27676H23.4749C21.5961 9.27676 21.2324 10.1693 21.2324 11.4818V14.373H25.7174L25.1324 18.8993H21.2324V30.5205H16.5561V18.903H12.6449V14.373H16.5561V11.0355C16.5561 7.16176 18.9224 5.05051 22.3799 5.05051C24.0374 5.05051 25.4586 5.17426 25.8749 5.23051V9.27676H25.8711Z" fill="#1472E1"/>
</svg>
