<svg width="31" height="31" viewBox="0 0 31 31" fill="none" xmlns="http://www.w3.org/2000/svg">
<path d="M29.2636 0.520508H1.66362C0.999873 0.520508 0.463623 1.05676 0.463623 1.72051V29.3205C0.463623 29.9843 0.999873 30.5205 1.66362 30.5205H29.2636C29.9274 30.5205 30.4636 29.9843 30.4636 29.3205V1.72051C30.4636 1.05676 29.9274 0.520508 29.2636 0.520508ZM9.36237 26.0843H4.91112V11.7668H9.36237V26.0843ZM7.13862 9.80926C6.62835 9.80926 6.12953 9.65794 5.70525 9.37445C5.28097 9.09096 4.95029 8.68801 4.75501 8.21658C4.55974 7.74515 4.50865 7.2264 4.6082 6.72592C4.70775 6.22545 4.95347 5.76574 5.31429 5.40492C5.67511 5.0441 6.13482 4.79838 6.63529 4.69883C7.13576 4.59928 7.65451 4.65037 8.12595 4.84565C8.59738 5.04092 9.00032 5.37161 9.28382 5.79589C9.56731 6.22017 9.71862 6.71898 9.71862 7.22926C9.71487 8.65426 8.55987 9.80926 7.13862 9.80926ZM26.0274 26.0843H21.5799V19.1205C21.5799 17.4593 21.5499 15.3255 19.2661 15.3255C16.9524 15.3255 16.5961 17.133 16.5961 19.0005V26.0843H12.1524V11.7668H16.4199V13.7243H16.4799C17.0724 12.5993 18.5236 11.4105 20.6911 11.4105C25.1986 11.4105 26.0274 14.3768 26.0274 18.2318V26.0843Z" fill="#1472E1"/>
</svg>
