<?xml version="1.0" encoding="UTF-8" standalone="no"?>
<svg
   xmlns:dc="http://purl.org/dc/elements/1.1/"
   xmlns:cc="http://creativecommons.org/ns#"
   xmlns:rdf="http://www.w3.org/1999/02/22-rdf-syntax-ns#"
   xmlns:svg="http://www.w3.org/2000/svg"
   xmlns="http://www.w3.org/2000/svg"
   viewBox="0 0 578.09332 200.96001"
   height="200.96001"
   width="578.09332"
   xml:space="preserve"
   id="svg2"
   version="1.1"><metadata
     id="metadata8"><rdf:RDF><cc:Work
         rdf:about=""><dc:format>image/svg+xml</dc:format><dc:type
           rdf:resource="http://purl.org/dc/dcmitype/StillImage" /></cc:Work></rdf:RDF></metadata><defs
     id="defs6" /><g
     transform="matrix(1.3333333,0,0,-1.3333333,0,200.96)"
     id="g10"><g
       transform="scale(0.1)"
       id="g12"><path
         id="path14"
         style="fill:#291359;fill-opacity:1;fill-rule:nonzero;stroke:none"
         d="M 77.3594,285.359 H 1.13281 v 32.422 H 190.031 V 285.359 H 114.184 V 72.1719 H 77.3594 V 285.359" /><path
         id="path16"
         style="fill:#291359;fill-opacity:1;fill-rule:nonzero;stroke:none"
         d="M 318.168,96.4688 C 304.547,81.7383 282.09,67.75 254.844,67.75 c -37.926,0 -56.699,19.1484 -56.699,56.699 v 125.563 h 33.136 v -114.5 c 0,-29.473 14.731,-38.3128 37.547,-38.3128 20.625,0 39.406,11.7888 49.34,25.0388 v 127.774 h 33.145 V 72.1602 h -33.145 v 24.3086" /><path
         id="path18"
         style="fill:#291359;fill-opacity:1;fill-rule:nonzero;stroke:none"
         d="m 403.965,250.02 h 33.144 v -27.258 c 13.614,17.687 34.602,31.297 58.176,31.297 V 220.57 c -3.312,0.719 -6.992,1.078 -11.406,1.078 -16.574,0 -39.043,-12.5 -46.77,-25.757 V 72.1602 H 403.965 V 250.02" /><path
         id="path20"
         style="fill:#291359;fill-opacity:1;fill-rule:nonzero;stroke:none"
         d="m 648.457,185.949 c 0,29.442 -15.094,39.031 -37.934,39.031 -20.605,0 -39.39,-12.519 -48.96,-25.781 V 72.1719 H 528.434 V 250.02 h 33.129 v -25.04 c 11.773,14.348 35.335,29.461 62.96,29.461 37.555,0 57.079,-19.89 57.079,-57.441 V 72.1719 H 648.457 V 185.949" /><path
         id="path22"
         style="fill:#291359;fill-opacity:1;fill-rule:nonzero;stroke:none"
         d="m 734.258,250.031 h 33.14 V 72.1719 h -33.14 z m -5.164,49.328 c 0,11.782 9.941,20.993 21.359,20.993 11.785,0 21.356,-9.211 21.356,-20.993 0,-11.781 -9.571,-21.347 -21.356,-21.347 -11.418,0 -21.359,9.566 -21.359,21.347" /><path
         id="path24"
         style="fill:#291359;fill-opacity:1;fill-rule:nonzero;stroke:none"
         d="m 940.074,185.949 c 0,29.442 -15.094,39.031 -37.933,39.031 -20.618,0 -39.391,-12.519 -48.961,-25.781 V 72.1719 H 820.051 V 250.02 h 33.129 v -25.04 c 11.781,14.348 35.336,29.461 62.957,29.461 37.558,0 57.082,-19.89 57.082,-57.441 V 72.1719 H 940.074 V 185.949" /><path
         id="path26"
         style="fill:#291359;fill-opacity:1;fill-rule:nonzero;stroke:none"
         d="m 1152.53,198.84 c -9.21,14.351 -29.45,26.14 -49.35,26.14 -33.13,0 -53.76,-25.781 -53.76,-62.242 0,-36.808 20.63,-62.578 53.76,-62.578 19.9,0 40.14,12.141 49.35,26.5 z M 1040.22,50.8086 c 14.73,-16.9297 32.77,-23.5703 57.07,-23.5703 27.62,0 55.24,13.2734 55.24,50.8203 v 23.2034 c -13.63,-17.6722 -34.61,-30.5511 -58.54,-30.5511 -46.03,0 -79.18,33.8671 -79.18,92.0271 0,57.082 33.15,91.703 79.18,91.703 23.18,0 44.18,-11.062 58.54,-30.203 v 25.782 h 33.14 V 79.1719 c 0,-61.1328 -44.55,-79.1836188 -88.38,-79.1836188 -29.81,0 -51.54,6.2617188 -72.9,26.5234188 l 15.83,24.2969" /><path
         id="path28"
         style="fill:#291359;fill-opacity:1;fill-rule:nonzero;stroke:none"
         d="m 1443.04,141.398 c -9.95,13.25 -27.25,20.243 -45.65,20.243 -23.93,0 -40.88,-14.36 -40.88,-35.34 0,-20.992 16.95,-35.3518 40.88,-35.3518 18.4,0 35.7,6.9805 45.65,20.2498 z m 0,-49.7183 C 1429.06,76.2188 1408.79,67.75 1384.87,67.75 c -29.46,0 -61.85,19.8906 -61.85,58.91 0,40.512 32.01,58.199 61.85,58.199 23.92,0 44.55,-7.75 58.17,-23.578 v 29.449 c 0,22.09 -18.04,35.348 -43.45,35.348 -20.24,0 -37.55,-7.726 -53.39,-23.558 l -14.36,22.82 c 19.88,19.519 44.18,29.09 72.91,29.09 38.66,0 71.44,-16.93 71.44,-62.219 V 72.1719 h -33.15 v 19.5078" /><path
         id="path30"
         style="fill:#291359;fill-opacity:1;fill-rule:nonzero;stroke:none"
         d="m 1706.69,224.969 c -20.25,0 -40.51,-11.778 -49.35,-26.141 V 123.34 c 8.84,-13.981 29.1,-26.1291 49.35,-26.1291 33.13,0 53.39,26.8791 53.39,64.0701 0,36.821 -20.26,63.688 -53.39,63.688 M 1624.21,4.41016 V 250.02 h 33.13 v -25.411 c 12.9,17.672 34.25,29.821 58.19,29.821 46.39,0 79.16,-34.981 79.16,-93.149 0,-58.179 -32.77,-93.5427 -79.16,-93.5427 -23.21,0 -43.82,10.7031 -58.19,30.2031 V 4.41016 h -33.13" /><path
         id="path32"
         style="fill:#291359;fill-opacity:1;fill-rule:nonzero;stroke:none"
         d="m 1946.39,141.398 c -9.95,13.25 -27.26,20.243 -45.67,20.243 -23.93,0 -40.86,-14.36 -40.86,-35.34 0,-20.992 16.93,-35.3518 40.86,-35.3518 18.41,0 35.72,6.9805 45.67,20.2498 z m 0,-49.7183 c -14,-15.4609 -34.25,-23.9297 -58.18,-23.9297 -29.45,0 -61.87,19.8906 -61.87,58.91 0,40.512 32.04,58.199 61.87,58.199 23.93,0 44.56,-7.75 58.18,-23.578 v 29.449 c 0,22.09 -18.05,35.348 -43.45,35.348 -20.25,0 -37.55,-7.726 -53.39,-23.558 l -14.36,22.82 c 19.88,19.519 44.18,29.09 72.91,29.09 38.65,0 71.43,-16.93 71.43,-62.219 V 72.1719 h -33.14 v 19.5078" /><path
         id="path34"
         style="fill:#291359;fill-opacity:1;fill-rule:nonzero;stroke:none"
         d="m 2032.92,119.672 c 12.14,-13.262 35.71,-25.4103 59.64,-25.4103 25.04,0 38.31,10.3083 38.31,25.4103 0,17.68 -20.26,23.558 -43.1,28.719 -30.19,6.988 -65.52,15.089 -65.52,53.39 0,28.348 24.29,52.649 67.74,52.649 30.57,0 52.66,-11.039 67.75,-25.399 l -14.73,-23.203 c -10.31,12.524 -30.19,21.731 -52.66,21.731 -22.45,0 -36.45,-8.848 -36.45,-23.207 0,-15.461 19.16,-20.622 41.25,-25.762 30.92,-7.012 67.75,-15.481 67.75,-56.352 0,-30.5466 -25.05,-54.488 -71.82,-54.488 -29.81,0 -55.96,9.2109 -73.99,27.6211 l 15.83,24.3009" /><path
         id="path36"
         style="fill:#291359;fill-opacity:1;fill-rule:nonzero;stroke:none"
         d="m 2211.49,111.578 v 109.344 h -29.44 v 29.09 h 29.44 v 48.609 h 33.15 v -48.609 h 36.08 v -29.09 h -36.08 V 118.93 c 0,-12.532 5.9,-21.7308 17.3,-21.7308 7.73,0 14.73,3.3208 18.05,6.9998 l 8.46,-25.0388 c -6.99,-6.6289 -17.31,-11.4219 -34.6,-11.4219 -28,0 -42.36,15.8398 -42.36,43.8397" /><path
         id="path38"
         style="fill:#291359;fill-opacity:1;fill-rule:nonzero;stroke:none"
         d="m 2412.52,250.031 h 33.15 V 72.1719 h -33.15 z m -5.14,49.328 c 0,11.782 9.94,20.993 21.37,20.993 11.78,0 21.35,-9.211 21.35,-20.993 0,-11.781 -9.57,-21.347 -21.35,-21.347 -11.43,0 -21.37,9.566 -21.37,21.347" /><path
         id="path40"
         style="fill:#291359;fill-opacity:1;fill-rule:nonzero;stroke:none"
         d="m 2618.36,185.949 c 0,29.442 -15.09,39.031 -37.93,39.031 -20.61,0 -39.39,-12.519 -48.97,-25.781 V 72.1719 h -33.14 V 250.02 h 33.14 v -25.04 c 11.78,14.348 35.35,29.461 62.96,29.461 37.57,0 57.08,-19.89 57.08,-57.441 V 72.1719 h -33.14 V 185.949" /><path
         id="path42"
         style="fill:#291359;fill-opacity:1;fill-rule:nonzero;stroke:none"
         d="m 2710.78,111.578 v 109.344 h -29.45 v 29.09 h 29.45 v 48.609 h 33.15 v -48.609 h 36.08 v -29.09 h -36.08 V 118.93 c 0,-12.532 5.88,-21.7308 17.3,-21.7308 7.72,0 14.72,3.3208 18.03,6.9998 l 8.47,-25.0388 c -7,-6.6289 -17.3,-11.4219 -34.61,-11.4219 -27.98,0 -42.34,15.8398 -42.34,43.8397" /><path
         id="path44"
         style="fill:#291359;fill-opacity:1;fill-rule:nonzero;stroke:none"
         d="m 2950.86,161.281 c 0,33.5 -19.52,63.699 -55.24,63.699 -35.35,0 -55.23,-30.199 -55.23,-63.699 0,-33.883 19.88,-64.0701 55.23,-64.0701 35.72,0 55.24,30.1871 55.24,64.0701 m -145.08,0 c 0,51.168 34.61,93.149 89.84,93.149 55.6,0 89.85,-41.981 89.85,-93.149 0,-51.562 -34.25,-93.5427 -89.85,-93.5427 -55.23,0 -89.84,41.9807 -89.84,93.5427" /><path
         id="path46"
         style="fill:#291359;fill-opacity:1;fill-rule:nonzero;stroke:none"
         d="m 3232.16,141.398 c -9.95,13.25 -27.25,20.243 -45.65,20.243 -23.93,0 -40.87,-14.36 -40.87,-35.34 0,-20.992 16.94,-35.3518 40.87,-35.3518 18.4,0 35.7,6.9805 45.65,20.2498 z m 0,-49.7183 C 3218.18,76.2188 3197.92,67.75 3173.98,67.75 c -29.45,0 -61.84,19.8906 -61.84,58.91 0,40.512 32.02,58.199 61.84,58.199 23.94,0 44.56,-7.75 58.18,-23.578 v 29.449 c 0,22.09 -18.05,35.348 -43.45,35.348 -20.25,0 -37.55,-7.726 -53.39,-23.558 l -14.36,22.82 c 19.89,19.519 44.18,29.09 72.91,29.09 38.65,0 71.44,-16.93 71.44,-62.219 V 72.1719 h -33.15 v 19.5078" /><path
         id="path48"
         style="fill:#291359;fill-opacity:1;fill-rule:nonzero;stroke:none"
         d="m 3421.42,220.922 h -29.44 v 29.09 h 29.44 v 11.777 c 0,38.301 22.46,59.66 54.14,59.66 11.4,0 21.35,-2.211 29.08,-6.629 l -7.73,-24.679 c -4.43,2.578 -9.95,4.058 -15.84,4.058 -16.57,0 -26.5,-11.051 -26.5,-32.41 v -11.777 h 36.08 v -29.09 h -36.08 V 72.1719 h -33.15 V 220.922" /><path
         id="path50"
         style="fill:#291359;fill-opacity:1;fill-rule:nonzero;stroke:none"
         d="M 3642.35,96.4688 C 3628.73,81.7383 3606.26,67.75 3579.01,67.75 c -37.91,0 -56.69,19.1484 -56.69,56.699 v 125.563 h 33.13 v -114.5 c 0,-29.473 14.73,-38.3128 37.56,-38.3128 20.61,0 39.39,11.7888 49.34,25.0388 v 127.774 h 33.14 V 72.1602 h -33.14 v 24.3086" /><path
         id="path52"
         style="fill:#291359;fill-opacity:1;fill-rule:nonzero;stroke:none"
         d="m 3734.77,111.578 v 109.344 h -29.45 v 29.09 h 29.45 v 48.609 h 33.15 v -48.609 h 36.07 v -29.09 h -36.07 V 118.93 c 0,-12.532 5.88,-21.7308 17.3,-21.7308 7.72,0 14.72,3.3208 18.04,6.9998 l 8.45,-25.0388 c -6.99,-6.6289 -17.3,-11.4219 -34.6,-11.4219 -27.98,0 -42.34,15.8398 -42.34,43.8397" /><path
         id="path54"
         style="fill:#291359;fill-opacity:1;fill-rule:nonzero;stroke:none"
         d="M 3960.85,96.4688 C 3947.22,81.7383 3924.77,67.75 3897.51,67.75 c -37.93,0 -56.7,19.1484 -56.7,56.699 v 125.563 h 33.14 v -114.5 c 0,-29.473 14.74,-38.3128 37.56,-38.3128 20.61,0 39.38,11.7888 49.34,25.0388 v 127.774 h 33.13 V 72.1602 h -33.13 v 24.3086" /><path
         id="path56"
         style="fill:#291359;fill-opacity:1;fill-rule:nonzero;stroke:none"
         d="m 4046.65,250.02 h 33.12 v -27.258 c 13.62,17.687 34.62,31.297 58.19,31.297 V 220.57 c -3.32,0.719 -6.99,1.078 -11.42,1.078 -16.56,0 -39.03,-12.5 -46.77,-25.757 V 72.1602 h -33.12 V 250.02" /><path
         id="path58"
         style="fill:#291359;fill-opacity:1;fill-rule:nonzero;stroke:none"
         d="m 4194.66,174.16 h 108.63 c -0.74,23.559 -16.59,53.031 -54.13,53.031 -35.73,0 -52.67,-28.722 -54.5,-53.031 m 54.5,80.27 c 53.39,0 86.52,-41.61 86.52,-96.102 v -8.109 h -140.66 c 2.58,-30.18 24.68,-55.2073 60.4,-55.2073 18.77,0 39.38,7.3473 52.66,20.9763 l 15.46,-21.7263 C 4305.86,76.9609 4280.82,67.75 4252.1,67.75 c -53.02,0 -92.05,37.559 -92.05,93.531 0,51.539 37.19,93.149 89.11,93.149" /><path
         id="path60"
         style="fill:#291359;fill-opacity:1;fill-rule:nonzero;stroke:none"
         d="m 81.2617,984.875 c 49.5903,-51.707 126.6253,-94.961 223.7113,-94.961 82.316,0 122.41,39.027 122.41,79.121 0,52.765 -61.211,70.705 -142.461,89.715 -115.024,26.38 -262.754,58.02 -262.754,215.26 0,117.13 101.305,212.1 266.969,212.1 111.851,0 204.726,-33.77 274.363,-98.14 l -83.367,-109.74 c -56.977,52.76 -132.961,77.03 -201.543,77.03 -67.543,0 -103.426,-29.55 -103.426,-71.74 0,-47.5 59.106,-62.27 140.359,-81.27 116.063,-26.38 263.805,-61.21 263.805,-217.375 0,-128.73 -91.812,-225.82 -281.738,-225.82 C 162.5,759.055 65.4258,804.426 0,870.906 l 81.2617,113.969" /><path
         id="path62"
         style="fill:#291359;fill-opacity:1;fill-rule:nonzero;stroke:none"
         d="m 692.27,898.348 v 265.912 h -84.415 v 117.14 h 84.415 v 139.28 H 827.344 V 1281.4 H 930.742 V 1164.26 H 827.344 V 934.227 c 0,-31.661 16.871,-55.926 46.426,-55.926 20.054,0 39.039,7.383 46.437,14.769 l 28.481,-101.304 c -20.04,-17.934 -55.93,-32.715 -111.852,-32.715 -93.926,0 -144.566,48.547 -144.566,139.297" /><path
         id="path64"
         style="fill:#291359;fill-opacity:1;fill-rule:nonzero;stroke:none"
         d="m 1636.72,1487.16 c 145.62,0 237.42,-70.7 291.24,-154.06 l -124.52,-67.53 c -32.71,49.59 -92.85,88.64 -166.72,88.64 -127.68,0 -220.54,-98.14 -220.54,-231.1 0,-132.962 92.86,-231.098 220.54,-231.098 64.37,0 121.35,26.386 151.96,53.82 v 85.478 h -187.84 v 128.74 H 1936.4 V 890.953 c -71.75,-80.183 -172.01,-132.969 -299.68,-132.969 -205.77,0 -374.61,143.528 -374.61,365.126 0,222.66 168.84,364.05 374.61,364.05" /><path
         id="path66"
         style="fill:#291359;fill-opacity:1;fill-rule:nonzero;stroke:none"
         d="m 2344.91,1475.57 h 134.01 V 771.723 h -134.01 v 703.847" /><path
         id="path68"
         style="fill:#291359;fill-opacity:1;fill-rule:nonzero;stroke:none"
         d="m 2717.4,1074.57 h 251.14 c -3.16,48.54 -36.92,112.91 -125.56,112.91 -83.37,0 -119.26,-62.25 -125.58,-112.91 m 125.58,219.5 c 151.94,0 255.37,-113.97 255.37,-280.7 v -29.557 h -378.84 c 8.44,-64.364 60.15,-118.176 146.68,-118.176 47.47,0 103.41,18.992 136.12,50.656 l 59.09,-86.543 c -50.64,-46.426 -130.85,-70.684 -209.99,-70.684 -155.12,0 -272.24,104.454 -272.24,268.024 0,147.73 108.67,266.98 263.81,266.98" /><path
         id="path70"
         style="fill:#291359;fill-opacity:1;fill-rule:nonzero;stroke:none"
         d="m 3209.15,932.113 c 36.93,-34.824 112.92,-69.648 176.22,-69.648 58.04,0 85.48,20.062 85.48,51.715 0,35.867 -44.32,48.543 -102.36,60.136 -87.58,16.887 -200.49,37.994 -200.49,159.344 0,85.47 74.92,160.4 208.93,160.4 86.53,0 155.12,-29.56 205.78,-69.65 l -53.83,-91.81 c -30.59,32.72 -88.64,59.1 -150.9,59.1 -48.54,0 -80.19,-17.94 -80.19,-47.49 0,-31.65 40.09,-43.26 97.09,-54.87 87.58,-16.88 204.72,-40.11 204.72,-166.719 0,-92.867 -79.16,-163.558 -220.55,-163.558 -88.64,0 -174.11,29.535 -227.94,79.144 l 58.04,93.906" /><path
         id="path72"
         style="fill:#291359;fill-opacity:1;fill-rule:nonzero;stroke:none"
         d="m 2092.06,1427.02 c 0,44.32 36.93,80.19 80.2,80.19 44.32,0 80.2,-35.87 80.2,-80.19 0,-44.32 -35.88,-80.2 -80.2,-80.2 -43.27,0 -80.2,35.88 -80.2,80.2" /><path
         id="path74"
         style="fill:#291359;fill-opacity:1;fill-rule:nonzero;stroke:none"
         d="m 2258.11,771.719 v 468.221 c 0,42.74 -34.64,77.39 -77.37,77.39 h -16.96 c -42.72,0 -77.37,-34.65 -77.37,-77.39 V 771.719 h 171.7" /><path
         id="path76"
         style="fill:#ffffff;fill-opacity:1;fill-rule:nonzero;stroke:none"
         d="m 2110.06,1350.37 c -22.36,18.15 -36.87,45.65 -36.87,76.65 0,30.91 14.26,58.55 36.53,76.73 -7.38,2.23 -15.2,3.46 -23.31,3.46 -43.26,0 -80.2,-35.87 -80.2,-80.19 0,-44.33 36.94,-80.2 80.2,-80.2 8.23,0 16.17,1.25 23.65,3.55" /><path
         id="path78"
         style="fill:#ffffff;fill-opacity:1;fill-rule:nonzero;stroke:none"
         d="m 2067.54,1239.95 c 0,31.23 14.99,58.97 38.15,76.52 -3.54,0.5 -7.13,0.84 -10.8,0.84 h -16.95 c -42.74,0 -77.39,-34.63 -77.39,-77.36 V 771.727 h 66.99 v 468.223" /></g></g></svg>