<svg width="150" height="61" viewBox="0 0 150 61" fill="none" xmlns="http://www.w3.org/2000/svg">
<g clip-path="url(#clip0)">
<path d="M109.05 60.1806C110.98 60.2891 114.094 60.3108 115.958 60.4356C123.165 60.5496 130.368 60.6636 137.576 60.7775C139.821 60.8155 142.107 60.8426 144.265 60.1317C146.424 59.4209 148.481 57.8526 149.385 55.492C150.107 53.609 150.031 51.4654 149.944 49.4142C149.731 44.4651 149.517 39.5215 149.309 34.5724C148.781 31.1428 147.018 30.2311 143.59 29.8567C141.538 29.6342 136.052 29.5799 133.995 29.6179C126.112 29.7698 118.782 29.0155 111.188 29.6667C108.76 29.8784 106.058 30.242 104.509 32.3963C103.447 33.8669 103.173 35.8694 102.995 37.7687C102.563 42.3976 102.477 47.8405 102.726 52.4911C102.828 54.4284 102.695 56.4254 103.615 58.0534C104.534 59.6868 105.22 60.0395 109.05 60.1806Z" fill="#414042"/>
<path d="M106.521 16.7195C107.024 14.2993 107.527 11.8736 108.025 9.44789C108.055 9.44246 108.081 9.44246 108.111 9.43704C108.614 11.841 109.112 14.2396 109.63 16.725H106.521V16.7195ZM115.055 22.0919C114.745 20.567 114.379 19.053 114.069 17.5281C113.414 14.2721 112.789 11.0108 112.144 7.75479C111.941 6.72916 111.687 5.71438 111.484 4.68875C111.209 3.28326 110.966 1.87234 110.691 0.466846C110.671 0.358314 110.519 0.200942 110.417 0.190089C108.919 0.0381434 107.42 -0.102948 105.922 0.157529C105.267 0.271488 105.246 0.266061 105.119 0.938961C104.677 3.20728 104.261 5.47561 103.819 7.74393C103.499 9.39905 103.28 11.0759 102.864 12.7201C102.478 14.2559 102.3 15.8567 102.021 17.425C101.721 19.0856 101.396 20.7407 101.101 22.4012C100.888 23.5951 100.705 24.7998 100.507 25.9991C100.461 26.265 100.492 26.444 100.817 26.4386C101.945 26.4223 103.077 26.4169 104.205 26.4278C104.525 26.4332 104.698 26.3409 104.774 25.9665C105.063 24.5556 105.383 23.1447 105.703 21.7446C105.734 21.6198 105.861 21.4244 105.947 21.419C107.364 21.3647 108.787 21.343 110.204 21.2996C110.448 21.2942 110.503 21.419 110.539 21.6361C110.595 22.0159 110.661 22.3958 110.742 22.7648C110.981 23.8773 111.225 24.9843 111.489 26.0913C111.519 26.2107 111.692 26.3735 111.799 26.3735C113.129 26.3735 114.282 26.3518 115.674 26.3301C115.872 26.3409 115.715 25.8254 115.684 25.63C115.476 24.4579 115.293 23.2695 115.055 22.0919ZM101.02 0.515685C99.7147 0.336607 98.4652 0.369167 97.2207 0.499405C96.9871 0.521112 96.8601 0.629644 96.8195 0.895548C96.5401 2.61036 96.2404 4.32517 95.961 6.0454C95.7071 7.6354 95.4632 9.23082 95.2296 10.8262C95.0213 12.2589 94.8385 13.6915 94.6302 15.1241C94.5439 15.7373 94.422 16.3451 94.3204 16.9529C94.2848 16.9475 94.2493 16.942 94.2137 16.9366C94.1883 16.8118 94.1629 16.687 94.1426 16.5622C94.0055 15.6776 93.8683 14.7931 93.7413 13.9031C93.528 12.4217 93.3299 10.9348 93.1216 9.45332C92.9185 7.9827 92.7051 6.51209 92.502 5.04148C92.3293 3.78793 92.1413 2.53438 91.9889 1.27541C91.9178 0.673057 91.9331 0.656777 91.3997 0.493979C90.2162 0.141249 89.0175 0.255208 87.8187 0.390873C87.5749 0.418006 87.4022 0.466846 87.3565 0.781589C87.1229 2.38787 86.8587 3.99414 86.6302 5.60042C86.3356 7.66796 86.0663 9.7355 85.7717 11.803C85.6143 12.9155 85.4213 14.0279 85.2384 15.1404C85.1571 15.6397 85.0606 16.1389 84.9692 16.6381C84.9438 16.6327 84.9184 16.6273 84.893 16.6219C84.8574 16.2257 84.8371 15.8296 84.7762 15.4334C84.512 13.7241 84.2174 12.0255 83.9584 10.3161C83.4809 7.1253 83.0289 3.92902 82.5565 0.738176C82.5463 0.651351 82.4498 0.526538 82.3787 0.510259C81.1292 0.233501 79.8847 -0.0378291 78.6047 0.34746C78.3152 0.434286 78.1679 0.542818 78.2237 0.895548C78.4777 2.51268 78.7164 4.13524 78.9552 5.75237C79.2549 7.79277 79.5393 9.82775 79.839 11.8682C80.1184 13.7783 80.4028 15.6939 80.6923 17.6041C81.0174 19.7422 81.3628 21.8803 81.6828 24.0183C81.7844 24.6695 81.8301 25.3316 81.9368 25.9882C81.9571 26.1239 82.1247 26.3138 82.2415 26.3301C82.9374 26.444 83.6384 26.5797 84.3393 26.5851C85.2943 26.5906 87.067 26.5851 87.2143 26.4223C87.3057 25.9991 87.4124 25.6029 87.4733 25.2013C87.9203 22.3469 88.3622 19.4871 88.7991 16.6327C88.9921 15.3846 89.1699 14.1311 89.368 12.8829C89.4492 12.3674 89.5711 11.8573 89.6727 11.3418C89.7134 11.3472 89.7489 11.3472 89.7896 11.3526C90.4905 16.3777 91.1965 21.4027 91.8975 26.4223C92.0093 26.5906 92.9997 26.5851 93.4975 26.5851C94.5896 26.5851 95.6817 26.52 96.7737 26.5146C97.0683 26.5146 97.2868 26.4983 97.3426 26.1293C97.3985 25.7766 97.4798 25.4293 97.5306 25.0711C97.6626 24.0835 97.749 23.0795 97.9166 22.0973C98.3077 19.791 98.7496 17.4956 99.1357 15.1892C99.3998 13.6264 99.6284 12.0527 99.8366 10.4789C100.03 9.01376 100.167 7.53772 100.35 6.06711C100.558 4.36315 100.786 2.6592 101 0.955241C101.035 0.808722 101.091 0.537392 101.02 0.515685ZM126.534 10.0828C126.458 10.4627 126.29 10.7503 125.955 10.8317C125.315 10.989 124.675 11.1301 124.025 11.2115C123.552 11.2712 123.065 11.2224 122.531 11.2224V4.82984C123.563 4.87325 124.558 4.85155 125.538 4.98179C126.316 5.08489 126.661 5.5353 126.702 6.36015C126.763 7.60284 126.783 8.84553 126.534 10.0828ZM131.1 25.5758C130.288 23.0633 129.47 20.5453 128.657 18.0328C128.388 17.1971 128.114 16.3668 127.86 15.5257C127.819 15.39 127.829 15.1513 127.911 15.0644C128.246 14.7171 128.617 14.4078 128.972 14.0822C129.937 13.1977 130.496 12.0798 130.791 10.7557C131.126 9.24168 130.984 7.7168 131.045 6.19192C131.05 6.1268 131.029 6.06711 131.024 6.00199C130.968 5.2097 130.684 4.49882 130.389 3.77708C129.78 2.26848 128.835 1.19401 127.306 0.792443C125.996 0.450566 124.665 0.255208 123.314 0.228075C121.81 0.200942 120.307 0.206368 118.803 0.238928C118.224 0.249781 118.199 0.320327 118.204 0.955241C118.214 2.5778 118.255 4.19493 118.239 5.81749C118.214 8.70987 118.163 11.5968 118.122 14.4892C118.092 16.5622 118.062 18.6297 118.041 20.7027C118.031 21.4461 118.051 22.195 118.041 22.9384C118.031 23.9044 118.006 24.8649 117.975 25.8308C117.97 26.0316 118.036 26.1293 118.209 26.189C119.245 26.5309 120.302 26.6774 121.378 26.5526C122.196 26.4603 122.323 26.2595 122.333 25.3696C122.349 22.8353 122.369 20.3011 122.399 17.7669C122.404 17.1591 122.46 16.5513 122.491 15.9707H123.877C124.01 16.3505 124.162 16.725 124.279 17.1157C125.107 19.8561 125.935 22.5966 126.737 25.3424C126.9 25.896 126.94 26.113 127.712 26.3029C127.834 26.3355 127.966 26.3735 128.093 26.4061C129.018 26.6123 129.942 26.6882 130.877 26.4603C131.182 26.3843 131.238 26.2107 131.197 25.9394C131.177 25.82 131.141 25.6952 131.1 25.5758ZM148.035 25.8363C147.746 25.2013 147.375 24.6153 147.101 23.9749C145.699 20.7298 144.322 17.4738 142.935 14.2233C142.499 13.1977 142.036 12.1883 141.605 11.1627C141.564 11.0704 141.61 10.8968 141.671 10.7991C142.123 10.0285 142.585 9.26338 143.047 8.49823C143.499 7.76021 143.951 7.02219 144.408 6.28417C145.221 4.97093 146.059 3.67397 146.852 2.34445C147.116 1.89947 147.41 1.30254 147.476 0.895548C147.527 0.580805 147.451 0.42886 147.151 0.401726C146.207 0.331181 145.262 0.249781 144.312 0.190089C143.54 0.141249 143.047 0.103263 142.504 1.15603C142.483 1.19944 142.458 1.24828 142.433 1.28626C141.325 3.191 140.218 5.09575 139.1 6.99506C138.836 7.44547 138.537 7.86332 138.252 8.29745C138.227 8.28659 138.196 8.27031 138.171 8.25946V0.41258C138.171 0.298621 137.704 0.287768 137.287 0.249781C136.388 0.168382 135.098 0.146676 134.255 0.358314C133.996 0.423433 133.823 0.569951 133.828 0.949814C133.853 2.94138 133.828 4.93837 133.838 6.92994C133.848 9.21454 133.884 11.5046 133.894 13.7892C133.904 16.2963 133.899 18.8088 133.899 21.3159C133.899 21.9182 133.864 22.526 133.859 23.1284C133.853 24.192 133.859 25.0874 133.859 26.1727C133.859 26.2812 134.316 26.2758 134.524 26.2812C135.641 26.3084 136.759 26.3464 137.871 26.3735C138.054 26.3789 138.227 26.3246 138.232 26.0533C138.247 25.5541 138.303 25.0494 138.298 24.5501C138.262 22.2601 138.227 19.9755 138.166 17.6855C138.146 16.9312 138.389 16.3234 138.887 15.7753C138.958 15.9273 139.034 16.0738 139.1 16.2203C140.091 18.4561 141.076 20.6918 142.082 22.9167C142.56 23.9804 143.073 25.0223 143.581 26.0642C143.636 26.1836 143.763 26.3247 143.875 26.3409C144.424 26.4169 144.972 26.4712 145.526 26.5037C146.207 26.5417 146.887 26.5526 147.568 26.5743C148.116 26.5851 148.274 26.3626 148.035 25.8363ZM76.0802 19.8887C76.0244 18.6406 76.0853 17.6041 76.0751 16.4591C76.0345 11.5643 76.065 6.56636 76.0244 1.67155C76.0244 1.41108 76.0244 1.25913 76.0244 1.00408C76.0244 0.738176 76.065 0.575378 75.7704 0.553672C75.171 0.510259 74.5767 0.407153 73.9773 0.385447C73.2866 0.358314 72.5907 0.3963 71.9761 0.629644C71.9354 0.645924 71.91 0.689337 71.91 0.73275C71.8694 4.20035 71.8338 7.6354 71.7932 11.1139C71.7932 11.1518 71.7627 11.1844 71.7272 11.1844H66.8865C66.8255 11.1844 66.7747 11.1301 66.7747 11.065C66.7747 10.8968 66.7798 10.734 66.7747 10.5658C66.7392 9.48587 66.7493 8.40598 66.6579 7.33151C66.4903 5.26397 66.47 3.20186 66.6376 1.13432C66.6732 0.662204 66.6122 0.553672 66.1652 0.483126C65.7995 0.423433 65.4287 0.38002 65.0579 0.34746C64.2046 0.260635 63.3614 0.342034 62.5385 0.575378C62.4623 0.602511 62.5487 1.2537 62.5487 1.60101C62.5436 2.96309 62.5639 4.36315 62.5487 5.72523C62.5334 7.44547 62.508 9.1657 62.503 10.8914C62.4979 12.3294 62.5284 13.7729 62.5233 15.211C62.5233 16.4319 62.5588 17.6584 62.4674 18.8685C62.2896 21.3159 62.442 23.7524 62.5334 26.189C62.5436 26.4332 62.7315 26.6285 62.9601 26.6285C63.6103 26.634 64.2604 26.6665 64.9106 26.6665C65.4135 26.6665 65.9214 26.6557 66.4243 26.6123C66.5716 26.596 66.7951 26.4603 66.8205 26.3355C66.8865 26.0099 66.8814 25.668 66.8763 25.3316C66.8662 24.3982 66.8205 23.4594 66.8255 22.526C66.8357 20.4693 66.8662 18.4127 66.8967 16.356C66.8967 16.2474 66.9119 16.1389 66.9221 16.0358C66.9373 15.911 67.0389 15.8187 67.1506 15.8187H71.6814C71.7678 15.8187 71.8338 15.8947 71.8338 15.987C71.8338 17.7018 71.8389 19.3677 71.8338 21.0337C71.8288 22.6671 71.7983 24.3005 71.7983 25.9339C71.7983 26.4495 71.9202 26.5634 72.3977 26.5688C73.5151 26.5906 74.6326 26.6123 75.7501 26.6231C76.004 26.6231 76.1818 26.5309 76.1666 26.189C76.0853 24.1052 76.1717 22.0105 76.0802 19.8887ZM11.2009 1.92118C10.4644 1.19401 9.66186 0.515685 8.6917 0.276914C7.112 -0.108375 5.5323 -0.0486823 3.98308 0.591658C1.83957 1.4762 0.508768 3.02278 0.117653 5.49732C-0.0804435 6.74001 -0.00425235 7.95557 0.188765 9.1657C0.351306 10.1913 0.828771 11.0922 1.5856 11.7922C2.52021 12.655 3.44975 13.5233 4.3742 14.3861C5.33929 15.2869 6.29422 16.1986 7.26438 17.094C7.83836 17.6258 8.31582 18.2173 8.49868 19.0313C8.56471 19.3189 8.62059 19.6065 8.67138 19.8941C8.88471 21.0771 8.21423 21.7066 7.38629 22.2221C6.41104 22.8245 4.43007 22.3958 4.40468 20.5236C4.39452 19.715 4.3488 18.9065 4.34372 18.0979C4.33864 17.7777 4.23705 17.6366 3.92721 17.6204C3.37355 17.5987 2.82498 17.5064 2.27132 17.4956C1.73291 17.4847 1.18941 17.5281 0.650991 17.5661C0.270036 17.5932 0.107495 17.8212 0.0567006 18.2499C-0.0652053 19.308 0.0567006 20.35 0.163368 21.3973C0.270036 22.4718 0.564641 23.4757 1.17417 24.3439C1.40782 24.675 1.67703 24.9951 1.9818 25.2448C2.35259 25.5486 2.80466 25.7332 3.18054 26.0316C3.80531 26.5254 4.51642 26.6557 5.24786 26.6448C6.20787 26.6285 7.16279 26.5797 8.11772 26.482C9.21995 26.3735 10.2714 25.8797 11.0536 25.0494C11.8562 24.2028 12.3997 23.1935 12.6841 21.9888C13.0143 20.5942 13.0549 19.2049 12.7451 17.8429C12.5165 16.8281 11.9882 15.8893 11.3178 15.1078C10.2308 13.838 9.05233 12.6659 7.75709 11.6294C6.91898 10.9565 6.11644 10.2456 5.48659 9.3285C4.99897 8.61762 4.5469 7.9013 4.43007 7.00591C4.33864 6.32759 4.36404 5.74694 4.96849 5.25312C5.5831 4.74844 6.41104 4.42285 7.23391 4.781C7.33041 4.82442 7.38121 4.83527 7.47772 4.87325C7.68597 4.97093 8.01614 5.2097 8.12788 5.36708C8.38185 5.73066 8.50884 5.89888 8.63582 6.39271C8.80344 7.05475 8.839 7.74936 8.77297 8.42769C8.70186 9.15485 8.74757 9.27966 9.31139 9.35021C9.89552 9.42618 10.627 9.44246 11.2416 9.44246H11.3787C11.78 9.44246 12.1457 9.44246 12.5419 9.43161C12.8568 9.42618 13.0448 9.29052 13.06 8.90523C13.1006 7.83076 13.2428 6.75629 13.0143 5.68182C12.7095 4.26005 12.2371 2.94138 11.2009 1.92118ZM24.0569 20.0135C23.8944 21.2616 23.1579 22.0919 21.7864 22.1787C21.1972 22.2167 20.5521 22.2493 20.1864 21.6415C19.8308 21.05 19.5921 20.3825 19.587 19.6553C19.582 19.1941 19.5921 18.7274 19.582 18.2661C19.5616 17.2514 19.5058 16.2366 19.5058 15.2218C19.5108 12.731 19.5413 10.2347 19.5616 7.74393C19.5616 7.46175 19.5718 7.17956 19.5616 6.89738C19.5261 5.75237 19.9781 5.12831 21.0143 4.79186C22.2842 4.37401 23.3407 4.98179 23.7267 5.90431C23.8487 6.19735 23.8994 6.54465 23.9096 6.87025C23.935 7.84704 23.9198 8.82383 23.9198 9.80062C23.9096 10.658 23.9299 12.324 24.0163 13.5775C24.1128 15.0319 24.1179 16.4862 24.1382 17.946C24.1433 18.6297 24.1433 19.3298 24.0569 20.0135ZM28.1865 10.4355C28.1865 9.34478 28.1509 8.24861 28.1966 7.15786C28.2677 5.44848 27.7649 3.92902 26.9522 2.4964C26.7338 2.11654 26.4493 1.80722 26.0988 1.53589C25.3725 0.982374 24.5649 0.635071 23.7471 0.320327C23.2594 0.130396 22.7261 -0.00526945 22.2131 0.00015716C21.0397 0.016437 19.8969 0.211795 18.8048 0.781589C18.0073 1.19944 17.2403 1.61729 16.6613 2.35531C16.4987 2.56152 16.2956 2.72974 16.128 2.9251C15.7114 3.4135 15.4879 4.01585 15.4067 4.65076C15.3305 5.24769 15.3356 5.85547 15.3305 6.46325C15.3 9.51301 15.2797 12.5573 15.2594 15.6071C15.2543 15.9924 15.3254 16.3777 15.2899 16.7575C15.1476 18.3041 15.2746 19.8344 15.4727 21.3647C15.6251 22.5423 16.1026 23.5788 16.8543 24.4362C17.4791 25.1471 18.2156 25.7223 19.0283 26.1944C20.0035 26.7642 21.0651 26.9324 22.1217 26.8185C23.7471 26.6502 25.2404 26.037 26.5052 24.8812C27.2163 24.23 27.7547 23.4648 27.9985 22.4935C28.0646 22.2276 28.3338 19.5902 28.3643 18.5592C28.4049 17.2676 28.4049 15.9815 28.2931 14.6846C28.1662 13.2737 28.2119 10.4355 28.1865 10.4355ZM43.5415 0.336607C42.9422 0.184662 40.5498 0.238928 39.9301 0.385447C39.7523 0.42886 39.5745 0.705617 39.5999 1.11804C39.5999 3.02278 39.6151 4.17865 39.5948 5.98571C39.5643 8.95407 39.4983 11.9224 39.4678 14.8908C39.4577 15.8567 39.5085 16.8227 39.5339 17.7832C39.5542 18.5266 39.6101 19.2701 39.5745 20.0135C39.544 20.5996 39.5237 21.2345 38.9497 21.6089C38.3199 22.0213 37.6393 22.2059 36.918 22.081C35.7751 21.8857 35.2672 21.305 35.1605 20.0623C35.0945 19.2972 35.1148 18.5212 35.1199 17.7506C35.1351 13.838 35.1656 9.93086 35.1808 6.01827C35.1859 4.31431 35.1605 2.60493 35.1453 0.900975C35.1453 0.694763 35.1503 0.461419 34.8761 0.401726C33.6367 0.146676 32.5294 0.0652765 31.2951 0.401726C31.0055 0.477699 30.8481 0.651351 30.843 0.987801C30.8379 1.28084 30.8582 1.36224 30.8582 1.88862C30.8481 3.56001 30.8633 5.23141 30.8532 6.90281C30.8328 9.91458 30.8024 12.9318 30.7871 15.9435C30.782 16.4536 30.8481 16.9692 30.8532 17.4793C30.8684 18.6351 30.8125 19.791 30.8938 20.9415C30.9395 21.6198 31.1173 22.3144 31.3713 22.933C31.7116 23.7741 32.2906 24.4525 32.9256 25.0765C33.5503 25.6952 34.2919 26.0859 35.0792 26.3409C36.1967 26.6991 37.3548 26.7371 38.5078 26.5634C39.0716 26.4766 39.6405 26.3518 40.184 26.1564C40.5853 26.0099 40.9358 25.7169 41.3167 25.4998C42.1752 25.0114 42.8761 24.2734 43.2266 23.3671C43.6583 22.2601 43.8666 21.0663 43.8564 19.8181C43.8514 19.4383 43.8717 19.1127 43.8768 18.8305C43.8971 16.8661 43.8666 15.0427 43.8768 13.0783C43.8869 10.8154 43.8717 8.5525 43.8768 6.28417C43.8768 5.45933 43.9123 4.63991 43.9326 3.81507C43.953 2.86541 43.9784 1.91575 43.9936 0.960667C43.9936 0.635071 43.8717 0.418006 43.5415 0.336607ZM59.694 0.423433C58.0839 0.385447 56.4686 0.352887 54.8584 0.342034C52.8216 0.33118 50.7898 0.336607 48.753 0.336607C48.0774 0.336607 47.4019 0.34746 46.7314 0.336607C46.4673 0.33118 46.3149 0.42886 46.2438 0.71647C45.9644 1.86149 45.8527 3.01193 46.0254 4.18407C46.1117 4.74302 46.1473 4.78643 46.6908 4.82442C46.965 4.84612 47.2444 4.8407 47.5187 4.8407C48.6971 4.8407 49.8755 4.8407 51.1048 4.8407C51.1048 5.08489 51.1098 5.32366 51.1048 5.56243C51.0489 7.62997 50.9829 9.69751 50.9473 11.7705C50.9321 12.6442 51.0083 13.5178 51.0032 14.3915C50.993 16.7847 50.9524 19.1778 50.9321 21.5655C50.9219 22.9927 50.9524 24.4199 50.9117 25.8471C50.9016 26.265 51.054 26.4169 51.3638 26.4766C52.6438 26.7208 53.4362 26.6882 54.7264 26.5146C55.4985 26.4223 55.2445 23.6439 55.2699 22.2276C55.3054 20.0298 55.3207 17.8266 55.341 15.6288C55.3461 15.1296 55.3359 14.6249 55.3207 14.1256C55.2953 13.2682 55.2496 12.4108 55.2343 11.5534C55.2191 10.9782 55.2394 10.3975 55.2394 9.82232C55.2394 9.39905 55.2343 8.97577 55.2343 8.5525C55.2343 7.961 55.2343 7.3695 55.2394 6.778C55.2445 6.09424 55.2546 5.41049 55.2597 4.6996C55.5594 4.73216 55.7575 4.77558 55.9607 4.77558C57.1645 4.781 58.3632 4.78643 59.5671 4.76472C59.7194 4.7593 59.9328 4.6182 60.009 4.47711C60.649 3.21271 60.4356 1.92118 60.0496 0.640497C59.9988 0.548245 59.8109 0.42886 59.694 0.423433Z" fill="#414042"/>
<path d="M13.6888 58.3999C12.9878 53.3966 12.2869 48.377 11.5808 43.3519C11.5402 43.3465 11.5046 43.3465 11.464 43.3411C11.3624 43.8566 11.2405 44.3667 11.1592 44.8822C10.9611 46.1303 10.7834 47.3839 10.5904 48.632C10.1535 51.4918 9.71161 54.3462 9.26463 57.2006C9.20367 57.6022 9.097 57.9983 9.00558 58.4216C8.93954 58.5953 6.91794 58.6007 5.87666 58.5953C5.23666 58.5953 4.25633 58.4542 3.96173 58.3022C3.86522 58.2805 3.74331 58.1069 3.72299 57.9821C3.59601 57.1409 3.50966 56.289 3.38267 55.4424C3.06775 53.3423 2.73251 51.2422 2.40743 49.1421C2.17885 47.6606 1.95028 46.1846 1.7471 44.6977C1.52361 43.0969 1.30012 41.4255 1.06138 39.8192C0.863287 38.4897 0.639794 37.2307 0.431538 35.9066C0.268997 34.8973 0.15725 33.8771 0.00994708 32.8623C-0.0357676 32.5367 0.106456 32.439 0.360426 32.363C1.64552 31.9723 3.8703 32.401 4.16998 32.5204C4.28681 32.5692 4.33252 32.6615 4.34776 32.7483C4.89126 36.433 5.42459 40.1231 5.96809 43.8078C6.14587 45.0125 6.36936 46.2063 6.5573 47.4056C6.62333 47.8072 6.64365 48.2196 6.75032 48.6429C6.81635 48.2956 6.89762 47.9483 6.94842 47.601C7.3954 44.5729 7.83223 41.5503 8.27922 38.5222C8.56367 36.6121 8.86335 34.7019 9.14272 32.7917C9.18843 32.4716 9.36621 32.4336 9.61003 32.4064C10.7834 32.2816 11.9567 32.1514 13.1199 32.4987C13.7294 32.6832 13.6989 32.6778 13.7802 33.329C13.9326 34.5771 14.1155 35.8144 14.2882 37.057C14.4913 38.5277 14.7047 39.9983 14.9078 41.4689C15.1161 42.9503 15.3193 44.4372 15.5275 45.9187C15.6545 46.8087 15.7917 47.6932 15.9288 48.5777C15.9491 48.7026 15.9745 48.8274 15.9999 48.9522C16.0355 48.9576 16.066 48.963 16.1015 48.9685C16.2082 48.3715 16.325 47.7746 16.4114 47.1723C16.6196 45.7288 16.8025 44.2799 17.0107 42.8364C17.2393 41.2681 17.4831 39.6998 17.732 38.1315C18.0114 36.3896 18.3111 34.6476 18.5955 32.9057C18.6361 32.6615 18.7428 32.5367 18.9663 32.515C20.226 32.3793 21.4806 32.3467 22.7758 32.5258C22.8876 32.5313 22.8317 32.7754 22.8165 32.8894C22.5981 34.5934 22.3644 36.2919 22.1562 37.9958C22.0647 38.7284 22.0343 39.4719 21.9428 40.2045C21.7803 41.458 21.5974 42.7116 21.4146 43.9651C21.1809 45.5605 20.9625 47.1614 20.6933 48.7514C20.3936 50.5259 20.0279 52.295 19.7231 54.0695C19.5555 55.0517 19.4692 56.0502 19.3269 57.0433C19.266 57.4611 19.1796 57.8735 19.078 58.2805C19.0526 58.3782 18.9104 58.5139 18.819 58.5139C17.5441 58.5519 16.2742 58.5898 14.9993 58.5898C14.6082 58.5898 13.7193 58.6007 13.6888 58.3999Z" fill="#F9B000"/>
<path d="M44.5912 43.24C45.1296 43.24 45.6122 43.2889 46.0897 43.2292C46.7398 43.1478 47.3849 43.0067 48.0198 42.8493C48.3601 42.7625 48.5227 42.4803 48.5989 42.1004C48.8478 40.8686 48.8275 39.6205 48.7614 38.3778C48.7208 37.5529 48.3754 37.1025 47.5982 36.9994C46.6179 36.8692 45.6223 36.8909 44.5861 36.8475V43.24H44.5912ZM45.9423 47.9992H44.5557C44.5252 48.5744 44.4744 49.1822 44.4642 49.79C44.4338 52.3079 44.4287 54.8313 44.3931 57.3492C44.3728 58.5214 44.2306 58.4671 43.3417 58.5811C42.3411 58.7059 41.3556 58.5431 40.3855 58.2501C40.1163 58.1687 40.0401 58.0384 40.0452 57.7454C40.101 54.1855 40.1467 50.6257 40.1975 47.0604C40.2382 43.9781 40.289 40.8957 40.3144 37.808C40.3296 36.2017 40.289 34.5954 40.2788 32.9837C40.2737 32.3488 40.2991 32.2783 40.8731 32.2674C42.3868 32.2403 43.9055 32.2348 45.4192 32.262C46.7551 32.2891 48.0757 32.4845 49.376 32.8209C50.9049 33.2225 51.8497 34.297 52.4592 35.8056C52.7538 36.5273 53.0383 37.2382 53.0942 38.0305C53.0992 38.0956 53.1195 38.1607 53.1145 38.2204C53.1907 39.5065 53.1907 41.2702 52.8605 42.7842C52.571 44.1083 52.0072 45.2262 51.0421 46.1107C50.6865 46.4363 50.3157 46.7402 49.9805 47.0929C49.8992 47.1798 49.884 47.4131 49.9246 47.5542C50.1684 48.379 50.4376 49.2039 50.7068 50.0233C51.5246 52.5521 52.3475 55.0755 53.1653 57.6043C53.211 57.7508 53.2618 57.8973 53.2719 58.0493C53.2872 58.2663 53.2364 58.4183 52.9824 58.4834C52.0122 58.6788 51.3316 58.6462 50.3208 58.4834C50.0871 58.44 49.9856 58.4237 49.7519 58.3857C49.0763 58.2609 48.9646 57.9407 48.8021 57.3818C47.9995 54.6359 47.1716 51.8955 46.3436 49.155C46.2268 48.7589 46.0744 48.379 45.9423 47.9992Z" fill="#F9B000"/>
<path d="M33.2601 41.7299C33.2601 40.7531 33.2754 39.7763 33.25 38.7995C33.2398 38.4739 33.189 38.1266 33.0671 37.8336C32.6912 36.9219 31.6449 36.3359 30.3852 36.7049C29.5674 36.9436 28.8918 37.3995 28.902 38.8321C28.9172 39.174 28.9071 39.3965 28.9071 39.6786C28.8868 42.1586 28.8563 44.6386 28.8512 47.1185C28.8512 48.1442 28.9071 49.1752 28.9274 50.2009C28.9375 50.6784 28.9274 51.1505 28.9325 51.6281C28.9426 52.3444 29.1814 52.9956 29.5318 53.5762C29.8976 54.184 30.5426 54.1514 31.1318 54.1134C32.5033 54.0266 33.2449 53.1909 33.4023 51.9482C33.4887 51.2645 33.4887 50.5644 33.4785 49.8753C33.4582 48.4209 33.4531 46.9666 33.3566 45.5068C33.2754 44.2533 33.2449 42.2183 33.2601 41.7299ZM37.6182 46.2828C37.7148 47.6558 37.7706 49.0233 37.7097 50.3908C37.6589 51.4653 37.6233 52.442 37.5116 53.5111C37.476 53.8638 37.3846 54.3359 37.2728 54.6615C36.9681 55.5732 36.4347 56.3058 35.7236 56.9244C34.469 58.0206 33.0163 58.5958 31.4468 58.7586C30.4004 58.8672 29.349 58.7044 28.3839 58.1454C27.561 57.6679 26.8144 57.0872 26.1794 56.3655C25.4378 55.5189 24.9604 54.4933 24.808 53.332C24.6099 51.8071 24.4677 50.5047 24.5642 48.6109C24.5693 48.1116 24.5896 47.9325 24.5947 47.5364C24.615 44.4866 24.6353 41.4423 24.6658 38.3925C24.6709 37.7902 24.6607 37.177 24.742 36.5801C24.8334 35.918 25.0721 35.3048 25.514 34.7947C26.3369 33.8396 27.2613 33.0907 28.4144 32.5861C29.669 32.038 30.7814 31.9023 32.0919 31.9674C32.2442 31.9729 32.5541 32.0271 32.7014 32.0651C33.8595 32.3636 34.8195 32.7868 35.7338 33.7039C36.0944 34.0295 36.3382 34.5288 36.577 34.9792C37.2525 36.2545 37.5878 37.622 37.5319 39.1034C37.4913 40.1942 37.5268 41.2904 37.5268 42.3811C37.5573 42.3865 37.5268 44.9913 37.6182 46.2828Z" fill="#F9B000"/>
<path d="M60.5262 32.6409V40.3847C60.7446 40.0754 60.9377 39.8583 61.0799 39.6087C61.9738 38.0621 62.8577 36.4993 63.7516 34.9527C64.0564 34.4317 64.3916 33.927 64.7116 33.4169C64.7574 33.341 64.8031 33.2596 64.8437 33.189C65.3212 32.2882 65.8698 32.158 66.6418 32.2068C67.5866 32.2665 68.5314 32.3479 69.4761 32.4184C69.8063 32.4456 69.9434 32.6084 69.8215 32.9285C69.6285 33.4332 69.4456 33.9542 69.1714 34.41C68.3841 35.7287 67.5561 37.0148 66.7434 38.3118C66.2863 39.0443 65.8291 39.7824 65.3821 40.5258C64.9199 41.291 64.4577 42.0507 64.0056 42.8267C63.9497 42.9244 63.9193 43.098 63.9599 43.1903C64.3866 44.1942 64.8386 45.1818 65.2653 46.1803C66.6621 49.4526 68.0488 52.7303 69.4558 56.0025C69.7301 56.6429 70.1009 57.2344 70.3904 57.8639C70.6241 58.374 70.4717 58.5856 69.9333 58.5802C69.278 58.5693 68.6177 58.553 67.9625 58.515C67.3885 58.4825 66.8094 58.4228 66.2406 58.3468C66.1288 58.3305 65.9917 58.2003 65.9358 58.0863C65.438 57.0661 64.9402 56.0405 64.4729 55.004C63.4367 52.7086 62.4158 50.4023 61.3897 48.1014C61.344 47.9983 61.2932 47.9006 61.2221 47.7541C60.8716 48.275 60.4957 48.7146 60.5161 49.3983C60.5719 51.0969 60.6024 52.79 60.6126 54.4885C60.6227 55.6824 60.5872 56.8762 60.5719 58.0755C60.5669 58.3468 60.3789 58.3794 60.1961 58.374C59.0684 58.3468 57.763 58.3088 56.6354 58.2871C56.4373 58.2817 56.1681 58.1352 56.1732 57.9181C56.1732 57.739 56.1732 57.8693 56.1732 57.7065C56.1935 53.9621 56.224 50.3643 56.229 46.6199C56.2341 44.6935 56.1884 42.767 56.1782 40.8406C56.1681 38.2141 56.1884 35.593 56.1681 32.9665C56.163 32.5867 56.3154 32.3913 56.61 32.3479C57.5598 32.2231 58.5808 32.12 59.683 32.2231C60.2722 32.3316 60.5008 32.3913 60.5262 32.6409Z" fill="#F9B000"/>
<path d="M80.9196 41.2955C80.3609 41.2304 80.2745 41.1327 80.3152 40.5466C80.371 39.7435 80.3812 38.9458 80.1526 38.1806C80.046 37.8116 79.9444 37.5729 79.7209 37.269C79.5939 37.0953 79.3856 36.9488 79.1723 36.8511C79.1215 36.8294 78.9234 36.7643 78.8726 36.748C78.0548 36.4495 77.4199 36.7589 76.7494 37.0465C76.1399 37.3124 75.8402 37.9853 75.9875 38.8264C76.0891 39.3799 76.2567 39.9551 76.5158 40.4381C77.2066 41.7134 78.2021 42.7064 79.3044 43.5693C80.6098 44.5895 81.778 45.7725 82.865 47.0423C83.5355 47.8237 84.0638 48.7625 84.2974 49.7719C84.6377 51.2371 84.5869 52.7348 84.1603 54.2108C83.9114 55.0737 83.5152 55.8063 82.992 56.5171C82.0879 57.7436 80.879 58.2645 79.4974 58.4273C78.6644 58.525 77.8263 58.5575 76.9932 58.5793C76.1856 58.601 74.931 58.3839 74.2453 57.8304C73.8542 57.5156 73.8186 57.4939 73.4529 57.1195C73.1989 56.859 72.9399 56.5877 72.7266 56.2838C71.8885 55.0791 71.6751 53.6736 71.6243 52.2301C71.5989 51.5301 71.6192 50.8246 71.6243 50.1192C71.6243 49.7881 71.7361 49.5602 72.0866 49.5385C72.6351 49.5005 73.1837 49.4191 73.7323 49.4191C74.3316 49.4246 74.931 49.5114 75.5304 49.5548C75.8199 49.5711 75.8809 49.7447 75.8859 50.0106C75.9012 50.8192 75.9164 51.6278 75.957 52.4363C75.9723 52.7131 76.0485 52.9898 76.1247 53.2558C76.2618 53.7062 76.5463 53.9775 76.978 54.162C78.3139 54.7209 79.0453 54.3085 80.0206 53.1689C80.3812 52.7457 80.2593 52.1162 80.1831 51.5681C80.0256 50.4502 79.4872 49.5874 78.6542 48.8765C77.7044 48.0625 76.8155 47.1562 75.8961 46.2988C74.9615 45.4197 74.0167 44.5515 73.0821 43.6724C72.3405 42.9778 71.8783 42.0824 71.7259 41.0676C71.5431 39.8575 71.4618 38.6419 71.665 37.3992C72.0459 35.082 73.2447 33.5463 75.251 32.6346C76.8764 31.8966 78.5475 31.7935 80.2237 32.2005C81.199 32.4339 81.9965 33.1176 82.738 33.8393C83.7793 34.8595 84.2517 36.1728 84.5565 37.6C84.785 38.6745 84.6428 39.7489 84.6022 40.8234C84.5869 41.225 84.3838 41.3552 84.0587 41.3606C83.6523 41.3715 83.2409 41.3606 82.8295 41.3606C82.8498 41.4149 81.5596 41.3715 80.9196 41.2955Z" fill="#F9B000"/>
<path d="M119.335 40.694V40.6072C119.34 40.4878 119.33 40.3739 119.325 40.2545L119.32 40.1948C119.32 40.0157 119.31 39.8366 119.289 39.6576C119.238 39.142 119.096 38.6428 118.908 38.1978C118.888 38.149 118.863 38.0947 118.832 38.035C118.802 37.9753 118.771 37.9102 118.736 37.8451C118.7 37.7745 118.659 37.704 118.619 37.6334C118.573 37.5629 118.532 37.4815 118.482 37.411C118.456 37.373 118.431 37.335 118.405 37.297C118.38 37.259 118.355 37.221 118.324 37.183C118.268 37.1071 118.212 37.0311 118.151 36.9551C118.09 36.8846 118.03 36.814 117.969 36.7435C117.953 36.7272 117.938 36.7109 117.923 36.6892C117.908 36.6729 117.892 36.6567 117.877 36.6404C117.847 36.6078 117.811 36.5753 117.781 36.5427C117.75 36.5101 117.72 36.4776 117.689 36.4504C117.659 36.4233 117.623 36.3908 117.598 36.3636C117.537 36.3094 117.476 36.2551 117.42 36.2063C117.298 36.1086 117.186 36.038 117.1 35.9892C117.054 35.9675 117.034 35.9512 116.998 35.9349C116.963 35.9186 116.948 35.9132 116.907 35.8969C116.795 35.8535 116.612 35.7938 116.562 35.7775C116.536 35.7667 116.511 35.7613 116.485 35.7504C116.46 35.745 116.435 35.7341 116.409 35.7287C116.363 35.7124 116.313 35.707 116.272 35.6907C116.094 35.6473 115.947 35.631 115.81 35.6147C115.673 35.5985 115.541 35.593 115.393 35.5985C115.246 35.6039 115.083 35.6202 114.885 35.6582C114.296 35.8155 113.768 36.0652 113.29 36.3745C112.813 36.6892 112.381 37.0637 112.005 37.5141C111.914 37.628 111.822 37.7474 111.736 37.8668C111.65 37.9916 111.569 38.1218 111.497 38.2521C111.421 38.3877 111.355 38.5288 111.294 38.6754C111.233 38.8219 111.177 38.9738 111.132 39.1312C111.086 39.2886 111.05 39.4514 111.025 39.6196C111 39.7878 110.984 39.9615 110.984 40.1351C110.984 40.2219 110.989 40.3088 110.989 40.3956C110.995 40.439 110.995 40.4824 111 40.5258C111.005 40.5692 111.01 40.6126 111.015 40.6561C111.02 40.6995 111.025 40.7429 111.03 40.7917C111.035 40.8351 111.045 40.8786 111.055 40.9274C111.066 40.9762 111.106 41.2204 111.127 41.329C111.147 41.4104 111.177 41.5297 111.223 41.66C111.365 42.1592 111.599 42.653 111.919 43.1143C111.97 43.1794 112.015 43.2283 112.015 43.2283C112.132 43.3694 112.264 43.5159 112.407 43.6624C112.549 43.8035 112.706 43.9446 112.874 44.0748C113.209 44.3353 113.595 44.5578 114.012 44.7097C114.428 44.8617 114.875 44.9322 115.312 44.9105C115.53 44.8997 115.744 44.8617 115.947 44.8074C116.15 44.7531 116.348 44.6717 116.521 44.5795C116.607 44.5361 116.689 44.4872 116.724 44.4601C116.75 44.4438 116.831 44.395 116.861 44.3841C116.907 44.357 116.917 44.3461 116.968 44.3244C117.024 44.2973 117.075 44.2593 117.13 44.2322C117.186 44.1996 117.237 44.1671 117.293 44.1291C117.44 44.0206 117.491 43.9717 117.532 43.9392C117.567 43.912 117.664 43.8252 117.699 43.7926C117.831 43.6678 117.852 43.6624 117.979 43.5322C118.019 43.4887 118.096 43.4182 118.136 43.3694C118.157 43.3477 118.212 43.2934 118.233 43.2771C118.273 43.2391 118.278 43.2228 118.314 43.1903C118.334 43.174 118.355 43.1469 118.385 43.1143C118.4 43.098 118.416 43.0818 118.431 43.0655C118.446 43.0492 118.461 43.0275 118.482 43.0058C118.517 42.9624 118.553 42.9244 118.588 42.881C118.624 42.8376 118.654 42.7941 118.685 42.7507C118.715 42.7073 118.741 42.6748 118.766 42.6422C118.791 42.6096 118.802 42.5879 118.817 42.5662C118.842 42.5174 118.868 42.4794 118.898 42.4251C118.924 42.3763 118.949 42.322 118.969 42.2732C119.02 42.1755 119.056 42.0616 119.101 41.9584C119.122 41.9042 119.137 41.8499 119.157 41.7956L119.183 41.7142C119.193 41.6871 119.198 41.66 119.203 41.6328C119.218 41.5786 119.233 41.5189 119.244 41.4646C119.254 41.4049 119.264 41.3507 119.274 41.291C119.279 41.2638 119.284 41.2367 119.289 41.2041L119.299 41.1173C119.304 41.0576 119.315 41.0034 119.32 40.9437L119.33 40.77L119.335 40.7266V40.694Z" fill="#E5007C"/>
<path d="M142.406 40.9438V40.857C142.411 40.7376 142.401 40.6236 142.396 40.5043L142.391 40.4446C142.391 40.2655 142.381 40.0864 142.361 39.9073C142.31 39.3918 142.167 38.8926 141.98 38.4476C141.959 38.3987 141.934 38.3445 141.903 38.2848C141.873 38.2251 141.842 38.16 141.807 38.0948C141.771 38.0243 141.731 37.9538 141.69 37.8832C141.644 37.8127 141.604 37.7313 141.553 37.6607C141.527 37.6227 141.502 37.5847 141.477 37.5468C141.451 37.5088 141.426 37.4708 141.395 37.4328C141.34 37.3568 141.284 37.2809 141.223 37.2049C141.162 37.1343 141.101 37.0638 141.04 36.9932C141.025 36.977 141.009 36.9607 140.994 36.939C140.979 36.9227 140.964 36.9064 140.948 36.8901C140.918 36.8576 140.882 36.825 140.852 36.7925C140.821 36.7599 140.791 36.7273 140.76 36.7002C140.73 36.6731 140.694 36.6405 140.669 36.6134C140.608 36.5591 140.547 36.5048 140.491 36.456C140.369 36.3583 140.258 36.2878 140.171 36.2389C140.126 36.2172 140.1 36.201 140.07 36.1847C140.034 36.1684 140.019 36.163 139.978 36.1467C139.867 36.1033 139.684 36.0436 139.633 36.0273C139.607 36.0165 139.582 36.011 139.557 36.0002C139.531 35.9947 139.506 35.9839 139.48 35.9785C139.435 35.9622 139.384 35.9568 139.343 35.9405C139.166 35.8971 139.018 35.8808 138.881 35.8645C138.744 35.8482 138.612 35.8428 138.465 35.8482C138.317 35.8537 138.155 35.8699 137.957 35.9079C137.367 36.0653 136.839 36.3149 136.362 36.6242C135.884 36.939 135.452 37.3134 135.077 37.7638C134.985 37.8778 134.894 37.9972 134.807 38.1165C134.721 38.2414 134.64 38.3716 134.569 38.5018C134.492 38.6375 134.426 38.7786 134.366 38.9251C134.305 39.0716 134.249 39.2236 134.203 39.381C134.157 39.5383 134.122 39.7011 134.096 39.8693C134.071 40.0376 134.056 40.2112 134.056 40.3849C134.056 40.4717 134.061 40.5585 134.061 40.6454C134.066 40.6888 134.066 40.7322 134.071 40.7756C134.076 40.819 134.081 40.8624 134.086 40.9058C134.091 40.9492 134.096 40.9927 134.101 41.0415C134.106 41.0849 134.117 41.1283 134.127 41.1772C134.137 41.2206 134.178 41.4702 134.198 41.5787C134.218 41.6601 134.249 41.7795 134.294 41.9098C134.437 42.409 134.67 42.9028 134.99 43.3641C135.041 43.4292 135.087 43.478 135.087 43.478C135.204 43.6191 135.336 43.7656 135.478 43.9122C135.62 44.0533 135.778 44.1944 135.945 44.3246C136.28 44.5851 136.666 44.8076 137.083 44.9595C137.5 45.1114 137.946 45.182 138.383 45.1603C138.602 45.1494 138.815 45.1114 139.018 45.0572C139.221 45.0029 139.42 44.9215 139.592 44.8293C139.679 44.7859 139.76 44.737 139.795 44.7099C139.821 44.6936 139.907 44.6448 139.933 44.6339C139.978 44.6068 139.988 44.5959 140.039 44.5742C140.095 44.5471 140.146 44.5091 140.202 44.482C140.258 44.4494 140.314 44.4168 140.364 44.3789C140.512 44.2703 140.562 44.2215 140.603 44.1889C140.639 44.1618 140.735 44.075 140.771 44.0424C140.903 43.9176 140.923 43.9122 141.05 43.7819C141.091 43.7385 141.167 43.668 141.207 43.6191C141.228 43.5974 141.284 43.5432 141.304 43.5269C141.345 43.4889 141.35 43.4726 141.385 43.4401C141.406 43.4238 141.426 43.3966 141.456 43.3641C141.472 43.3478 141.487 43.3315 141.502 43.3152C141.517 43.299 141.533 43.2773 141.553 43.2555C141.588 43.2121 141.624 43.1742 141.66 43.1307C141.695 43.0873 141.726 43.0439 141.756 43.0005C141.787 42.9571 141.812 42.9245 141.837 42.892C141.863 42.8594 141.873 42.8377 141.888 42.816C141.914 42.7672 141.939 42.7292 141.969 42.6749C141.995 42.6261 142.02 42.5718 142.041 42.523C142.091 42.4253 142.127 42.3113 142.173 42.2082C142.193 42.1539 142.208 42.0997 142.228 42.0454L142.254 41.964C142.264 41.9369 142.269 41.9098 142.274 41.8826C142.289 41.8284 142.3 41.7687 142.315 41.7144C142.325 41.6547 142.335 41.6004 142.345 41.5407C142.35 41.5136 142.355 41.4865 142.361 41.4539L142.371 41.3671C142.376 41.3074 142.386 41.2531 142.391 41.1934L142.401 41.0198L142.406 40.9764V40.9438Z" fill="#1472E1"/>
<path d="M130.744 38.0459V37.959C130.749 37.8397 130.739 37.7257 130.734 37.6063L130.729 37.5466C130.729 37.3675 130.719 37.1885 130.698 37.0094C130.648 36.4939 130.505 35.9946 130.317 35.5496C130.297 35.5008 130.272 35.4465 130.241 35.3868C130.211 35.3271 130.18 35.262 130.145 35.1969C130.109 35.1263 130.069 35.0558 130.028 34.9853C129.982 34.9147 129.942 34.8333 129.891 34.7628C129.865 34.7248 129.84 34.6868 129.815 34.6488C129.789 34.6108 129.764 34.5728 129.733 34.5348C129.677 34.4589 129.622 34.3829 129.561 34.3069C129.5 34.2364 129.439 34.1658 129.378 34.0953C129.362 34.079 129.347 34.0627 129.332 34.041C129.317 34.0247 129.302 34.0085 129.286 33.9922C129.256 33.9596 129.22 33.9271 129.19 33.8945C129.159 33.8619 129.129 33.8294 129.098 33.8023C129.068 33.7751 129.032 33.7426 129.007 33.7154C128.946 33.6612 128.885 33.6069 128.829 33.5581C128.707 33.4604 128.595 33.3898 128.509 33.341C128.463 33.3193 128.438 33.303 128.408 33.2867C128.372 33.2704 128.357 33.265 128.316 33.2487C128.204 33.2053 128.022 33.1456 127.971 33.1294C127.945 33.1185 127.92 33.1131 127.895 33.1022C127.869 33.0968 127.844 33.0859 127.818 33.0805C127.773 33.0642 127.722 33.0588 127.681 33.0425C127.503 32.9991 127.356 32.9828 127.219 32.9666C127.082 32.9503 126.95 32.9449 126.802 32.9503C126.655 32.9557 126.493 32.972 126.295 33.01C125.705 33.1673 125.177 33.417 124.7 33.7263C124.222 34.041 123.79 34.4155 123.415 34.8659C123.323 34.9798 123.232 35.0992 123.145 35.2186C123.059 35.3434 122.978 35.4737 122.907 35.6039C122.83 35.7396 122.764 35.8806 122.703 36.0272C122.642 36.1737 122.587 36.3256 122.541 36.483C122.495 36.6404 122.46 36.8032 122.434 36.9714C122.409 37.1396 122.394 37.3133 122.394 37.4869C122.394 37.5738 122.399 37.6606 122.399 37.7474C122.404 37.7908 122.404 37.8342 122.409 37.8776C122.414 37.9211 122.419 37.9645 122.424 38.0079C122.429 38.0513 122.434 38.0947 122.439 38.1435C122.444 38.187 122.455 38.2304 122.465 38.2792C122.475 38.3226 122.515 38.5722 122.536 38.6808C122.556 38.7622 122.587 38.8816 122.632 39.0118C122.775 39.5111 123.008 40.0049 123.328 40.4661C123.379 40.5313 123.425 40.5801 123.425 40.5801C123.541 40.7212 123.674 40.8677 123.816 41.0142C123.958 41.1553 124.115 41.2964 124.283 41.4266C124.618 41.6871 125.004 41.9096 125.421 42.0616C125.837 42.2135 126.284 42.2841 126.721 42.2623C126.94 42.2515 127.153 42.2135 127.356 42.1592C127.559 42.105 127.757 42.0236 127.93 41.9313C128.016 41.8879 128.098 41.8391 128.133 41.8119C128.159 41.7957 128.245 41.7468 128.27 41.736C128.316 41.7088 128.326 41.698 128.377 41.6763C128.433 41.6491 128.484 41.6112 128.54 41.584C128.595 41.5515 128.651 41.5189 128.702 41.4809C128.849 41.3724 128.9 41.3235 128.941 41.291C128.976 41.2638 129.073 41.177 129.108 41.1445C129.241 41.0197 129.261 41.0142 129.388 40.884C129.429 40.8406 129.505 40.77 129.545 40.7212C129.566 40.6995 129.622 40.6452 129.642 40.6289C129.682 40.591 129.688 40.5747 129.723 40.5421C129.743 40.5258 129.764 40.4987 129.794 40.4661C129.809 40.4499 129.825 40.4336 129.84 40.4173C129.855 40.401 129.87 40.3793 129.891 40.3576C129.926 40.3142 129.962 40.2762 129.997 40.2328C130.033 40.1894 130.063 40.146 130.094 40.1026C130.124 40.0591 130.15 40.0266 130.175 39.994C130.201 39.9615 130.211 39.9398 130.226 39.918C130.251 39.8692 130.277 39.8312 130.307 39.777C130.333 39.7281 130.358 39.6738 130.378 39.625C130.429 39.5273 130.465 39.4134 130.51 39.3103C130.531 39.256 130.546 39.2017 130.566 39.1475L130.592 39.0661C130.602 39.0389 130.607 39.0118 130.612 38.9847C130.627 38.9304 130.637 38.8707 130.653 38.8164C130.663 38.7568 130.673 38.7025 130.683 38.6428C130.688 38.6157 130.693 38.5885 130.698 38.556L130.709 38.4691C130.714 38.4095 130.724 38.3552 130.729 38.2955L130.739 38.1218L130.744 38.0784V38.0459Z" fill="#F9B000"/>
<path d="M137.565 60.7717C139.81 60.8096 142.096 60.8368 144.255 60.1259C144.59 60.0174 144.92 59.8763 145.245 59.7243C145.245 59.5398 145.25 59.3879 145.25 59.3336C145.265 58.4382 145.235 57.4289 145.164 56.3164C145.083 55.052 144.818 53.8419 144.392 52.724C143.985 51.6658 143.457 50.613 142.812 49.5874C142.116 48.4695 141.141 47.4439 139.922 46.5268C139.749 46.3966 139.571 46.2717 139.399 46.1469C138.83 45.7562 138.103 45.7616 137.54 46.1632C136.884 46.6353 136.3 47.2214 135.813 47.9106C135.376 48.5292 134.98 49.1044 134.639 49.62C134.619 49.6525 134.599 49.6851 134.578 49.7176C134.263 50.2657 133.943 50.8952 133.623 51.5953C133.613 51.6224 133.598 51.6495 133.588 51.6821C133.156 52.762 132.821 53.6085 132.587 54.2163C132.572 54.2543 132.557 54.2977 132.547 54.3357L132.496 54.4985C131.927 56.2838 131.729 58.3622 131.896 60.6794C133.786 60.712 135.676 60.7445 137.565 60.7717Z" fill="#1472E1"/>
<path d="M123.734 55.961C123.805 57.1169 123.841 58.1805 123.826 59.1247C123.816 59.5969 123.78 60.0744 123.729 60.5574C125.903 60.5899 128.072 60.6279 130.241 60.6605C130.079 58.1697 130.307 55.9122 130.937 53.9369L130.988 53.7795C131.013 53.6981 131.039 53.6222 131.069 53.5462C131.308 52.9384 131.643 52.0864 132.075 51.0011C132.095 50.9468 132.12 50.8926 132.146 50.8329C132.324 50.4422 132.501 50.0677 132.684 49.715C132.283 48.6948 131.77 47.68 131.15 46.687C130.454 45.5691 129.479 44.5434 128.26 43.6263C128.087 43.4961 127.91 43.3713 127.737 43.2519C127.168 42.8612 126.442 42.8666 125.878 43.2682C125.223 43.7403 124.638 44.3264 124.151 45.0156C123.709 45.6342 123.318 46.2094 122.977 46.7249C122.957 46.7575 122.937 46.7901 122.917 46.8226C122.602 47.3707 122.282 48.0002 121.962 48.7002C121.951 48.7274 121.936 48.7599 121.926 48.7871C121.845 48.9933 121.769 49.1832 121.692 49.3731C122.134 50.1763 122.52 50.9903 122.835 51.8097C123.338 53.1121 123.638 54.5013 123.734 55.961Z" fill="#F9B000"/>
<path d="M109.04 60.1759C110.97 60.2845 114.084 60.3062 115.948 60.431C117.995 60.4635 120.047 60.4961 122.094 60.5287C122.145 60.0457 122.181 59.5627 122.186 59.0906C122.196 58.1952 122.171 57.1859 122.099 56.0788C122.018 54.8144 121.754 53.6043 121.327 52.4864C120.921 51.4282 120.393 50.3755 119.748 49.3499C119.052 48.232 118.076 47.2063 116.857 46.2892C116.685 46.159 116.507 46.0342 116.329 45.9094C115.76 45.5187 115.034 45.5241 114.47 45.9257C113.815 46.3978 113.231 46.9839 112.743 47.673C112.306 48.2917 111.91 48.8669 111.57 49.3824C111.549 49.415 111.529 49.4475 111.509 49.4801C111.194 50.0282 110.874 50.6577 110.554 51.3577C110.544 51.3848 110.528 51.412 110.518 51.4445C110.087 52.5244 109.751 53.371 109.518 53.9787C109.502 54.0167 109.487 54.0601 109.477 54.0981L109.426 54.2609C108.878 55.9757 108.674 57.9619 108.807 60.1705C108.888 60.1705 108.959 60.1759 109.04 60.1759Z" fill="#E5007C"/>
</g>
<defs>
<clipPath id="clip0">
<rect width="150" height="60.7944" fill="white"/>
</clipPath>
</defs>
</svg>
