<svg xmlns="http://www.w3.org/2000/svg" viewBox="0 0 260.89 86.37"><defs><style>.cls-1{fill:#6c217f;}.cls-2{fill:#7c2682;}.cls-3{fill:#fff;}</style></defs><title>Twin_TET_Logo_SVG</title><g id="Layer_2" data-name="Layer 2"><g id="Employment_training" data-name="Employment &amp; training"><path class="cls-1" d="M106.76,39.59h8.63v2.94h-5.64v2.86h5.64v2.89h-5.64v4.16h5.64v3h-8.63Z"/><path class="cls-1" d="M118.24,43.71h2.93V45a5,5,0,0,1,1.67-1.24,4.89,4.89,0,0,1,2-.41,3.73,3.73,0,0,1,2,.54,3.88,3.88,0,0,1,1.42,1.57A4.74,4.74,0,0,1,130,43.94a4.68,4.68,0,0,1,2.22-.54,4.11,4.11,0,0,1,2.19.58,3.35,3.35,0,0,1,1.36,1.51,8.09,8.09,0,0,1,.41,3v6.85h-3V49.46a5.08,5.08,0,0,0-.49-2.69,1.69,1.69,0,0,0-1.48-.7,2.25,2.25,0,0,0-1.35.43,2.54,2.54,0,0,0-.89,1.19,7.38,7.38,0,0,0-.29,2.43v5.27h-3V49.73a8,8,0,0,0-.23-2.27,2.06,2.06,0,0,0-.69-1,1.83,1.83,0,0,0-1.12-.34,2.21,2.21,0,0,0-1.33.44,2.6,2.6,0,0,0-.89,1.22,7.54,7.54,0,0,0-.3,2.47v5.2h-2.93Z"/><path class="cls-1" d="M142,43.71V45a5.52,5.52,0,0,1,1.72-1.19,5,5,0,0,1,2-.4,5.1,5.1,0,0,1,3.89,1.73,6.27,6.27,0,0,1,1.6,4.44,6.12,6.12,0,0,1-1.65,4.37,5.21,5.21,0,0,1-3.92,1.76,4.87,4.87,0,0,1-1.88-.36A5.73,5.73,0,0,1,142,54.16v5.51h-2.91v-16Zm3.08,2.41a3.06,3.06,0,0,0-2.3.95,3.41,3.41,0,0,0-.91,2.47,3.51,3.51,0,0,0,.91,2.52,3,3,0,0,0,2.3,1,3,3,0,0,0,2.26-1,3.5,3.5,0,0,0,.92-2.49,3.46,3.46,0,0,0-.9-2.47A3,3,0,0,0,145.06,46.11Z"/><path class="cls-1" d="M153.46,39.19h2.93v16.2h-2.93Z"/><path class="cls-1" d="M164.71,43.41a6.2,6.2,0,0,1,3.11.83,6.07,6.07,0,0,1,3.09,5.31,6.13,6.13,0,0,1-.82,3.09,5.92,5.92,0,0,1-2.24,2.25,6.19,6.19,0,0,1-3.13.81,5.83,5.83,0,0,1-4.29-1.79,6.19,6.19,0,0,1,.23-8.91A5.87,5.87,0,0,1,164.71,43.41Zm0,2.76a3,3,0,0,0-2.28,1,3.38,3.38,0,0,0-.91,2.43,3.44,3.44,0,0,0,.9,2.47,3,3,0,0,0,2.28.95A3,3,0,0,0,167,52a3.77,3.77,0,0,0,0-4.9A3,3,0,0,0,164.76,46.17Z"/><path class="cls-1" d="M171.44,43.71h3l3,7.33,3.35-7.33h3l-7.32,16h-3l2.4-5.15Z"/><path class="cls-1" d="M185.49,43.71h2.93V45a5,5,0,0,1,1.67-1.24,4.88,4.88,0,0,1,2-.41,3.73,3.73,0,0,1,2,.54,3.88,3.88,0,0,1,1.42,1.57,4.74,4.74,0,0,1,1.71-1.57,4.68,4.68,0,0,1,2.22-.54,4.11,4.11,0,0,1,2.19.58A3.35,3.35,0,0,1,203,45.5a8.08,8.08,0,0,1,.41,3v6.85h-3V49.46a5.08,5.08,0,0,0-.49-2.69,1.69,1.69,0,0,0-1.48-.7,2.25,2.25,0,0,0-1.35.43,2.53,2.53,0,0,0-.89,1.19,7.38,7.38,0,0,0-.29,2.43v5.27h-3V49.73a8,8,0,0,0-.23-2.27,2.06,2.06,0,0,0-.69-1,1.83,1.83,0,0,0-1.12-.34,2.21,2.21,0,0,0-1.33.44,2.6,2.6,0,0,0-.89,1.22,7.54,7.54,0,0,0-.3,2.47v5.2h-2.93Z"/><path class="cls-1" d="M218,50.4h-9.42a3.13,3.13,0,0,0,1.09,2,3.42,3.42,0,0,0,2.26.74A3.91,3.91,0,0,0,214.71,52l2.47,1.16A5.83,5.83,0,0,1,215,55.07a6.92,6.92,0,0,1-3.06.63A6.05,6.05,0,0,1,207.43,54a5.9,5.9,0,0,1-1.73-4.35,6.11,6.11,0,0,1,1.72-4.44,5.79,5.79,0,0,1,4.32-1.77,6,6,0,0,1,4.49,1.77A6.39,6.39,0,0,1,218,49.84ZM215,48.09a2.94,2.94,0,0,0-1.15-1.59,3.32,3.32,0,0,0-2-.61,3.51,3.51,0,0,0-2.15.69,3.83,3.83,0,0,0-1.08,1.51Z"/><path class="cls-1" d="M220.29,43.71h2.93v1.2A7,7,0,0,1,225,43.73a4.36,4.36,0,0,1,1.66-.33,4,4,0,0,1,3,1.21,4.17,4.17,0,0,1,1,3.05v7.72h-2.9V50.28a13,13,0,0,0-.19-2.78,1.9,1.9,0,0,0-.65-1,1.83,1.83,0,0,0-1.15-.36,2.16,2.16,0,0,0-1.53.6,3.18,3.18,0,0,0-.88,1.65,13.25,13.25,0,0,0-.13,2.37v4.69h-2.93Z"/><path class="cls-1" d="M233.9,39.4h2.93v4.31h1.74v2.52h-1.74v9.16H233.9V46.23h-1.5V43.71h1.5Z"/><path class="cls-1" d="M258.69,49.55l1.07,1.13a24.4,24.4,0,0,1-2,1.58q.65.59,1.68,1.63.82.81,1.41,1.5h-2.2l-2.1-2.16a13.54,13.54,0,0,1-3.21,2.07,7.1,7.1,0,0,1-2.61.48,4.09,4.09,0,0,1-2.93-1,3.45,3.45,0,0,1-1.11-2.62,4.43,4.43,0,0,1,.75-2.37,13.86,13.86,0,0,1,3-3,14.32,14.32,0,0,1-1.67-2.31,3.2,3.2,0,0,1-.37-1.42,2.45,2.45,0,0,1,.91-2,3.89,3.89,0,0,1,2.62-.9,4.07,4.07,0,0,1,1.8.4,3,3,0,0,1,1.25,1.07,2.6,2.6,0,0,1,.43,1.42,3.22,3.22,0,0,1-.56,1.69A11.26,11.26,0,0,1,252.73,47l2.4,2.51,1.57,1.59A24.88,24.88,0,0,0,258.69,49.55Zm-7.13-1.6a12.78,12.78,0,0,0-2.64,2.41A3,3,0,0,0,248.3,52a2.1,2.1,0,0,0,.76,1.6,2.68,2.68,0,0,0,1.87.69,4.16,4.16,0,0,0,1.65-.34,13.31,13.31,0,0,0,2.91-1.86L253,49.54Q252.36,48.86,251.56,47.95Zm.19-2.09a7.89,7.89,0,0,0,1.73-1.75A2,2,0,0,0,253.9,43a1.16,1.16,0,0,0-.53-.95,2.32,2.32,0,0,0-1.42-.4,2.17,2.17,0,0,0-1.37.41,1.2,1.2,0,0,0-.53,1,1.59,1.59,0,0,0,.22.81A12.72,12.72,0,0,0,251.76,45.85Z"/><path class="cls-1" d="M107.94,65.77h1.5v4.34h2.38v1.3h-2.38V81.79h-1.5V71.41h-2.05v-1.3h2.05Z"/><path class="cls-1" d="M113.7,70.11h1.54v1.71a5.39,5.39,0,0,1,1.45-1.51,2.86,2.86,0,0,1,1.59-.5,2.75,2.75,0,0,1,1.33.4l-.78,1.27a2.1,2.1,0,0,0-.79-.2,2.17,2.17,0,0,0-1.45.62,3.9,3.9,0,0,0-1.06,1.92,18.37,18.37,0,0,0-.28,4v4H113.7Z"/><path class="cls-1" d="M132,70.11V81.79h-1.48v-2a6.44,6.44,0,0,1-2.12,1.73,5.93,5.93,0,0,1-6.81-1.22,6,6,0,0,1-1.76-4.38,5.92,5.92,0,0,1,1.77-4.32,5.78,5.78,0,0,1,4.26-1.79,5.52,5.52,0,0,1,2.6.61,5.93,5.93,0,0,1,2,1.84V70.11Zm-6,1.15a4.54,4.54,0,0,0-4,2.35,4.74,4.74,0,0,0,0,4.72,4.61,4.61,0,0,0,1.7,1.75,4.44,4.44,0,0,0,2.29.63,4.7,4.7,0,0,0,2.34-.62,4.35,4.35,0,0,0,1.7-1.68,4.81,4.81,0,0,0,.6-2.39,4.65,4.65,0,0,0-1.34-3.39A4.43,4.43,0,0,0,126,71.26Z"/><path class="cls-1" d="M136.12,65.29a1.24,1.24,0,0,1,0,2.48,1.24,1.24,0,0,1-1.23-1.24,1.2,1.2,0,0,1,.36-.88A1.18,1.18,0,0,1,136.12,65.29Zm-.75,4.81h1.5V81.79h-1.5Z"/><path class="cls-1" d="M140.18,70.11h1.5V72.2a6.29,6.29,0,0,1,2-1.8,4.91,4.91,0,0,1,2.38-.6,4.15,4.15,0,0,1,2.33.67,4,4,0,0,1,1.5,1.79,9.48,9.48,0,0,1,.48,3.51v6h-1.5V76.22a13.74,13.74,0,0,0-.17-2.7,3,3,0,0,0-1-1.75,3,3,0,0,0-1.93-.59,3.71,3.71,0,0,0-2.45.9,4.23,4.23,0,0,0-1.42,2.23,15.59,15.59,0,0,0-.21,3.18v4.29h-1.5Z"/><path class="cls-1" d="M154.27,65.29a1.24,1.24,0,0,1,0,2.48A1.24,1.24,0,0,1,153,66.54a1.2,1.2,0,0,1,.36-.88A1.18,1.18,0,0,1,154.27,65.29Zm-.75,4.81H155V81.79h-1.5Z"/><path class="cls-1" d="M158.34,70.11h1.5V72.2a6.29,6.29,0,0,1,2-1.8,4.91,4.91,0,0,1,2.38-.6,4.15,4.15,0,0,1,2.33.67,4,4,0,0,1,1.5,1.79,9.49,9.49,0,0,1,.48,3.51v6H167V76.22a13.77,13.77,0,0,0-.17-2.7,3,3,0,0,0-1-1.75,3,3,0,0,0-1.93-.59,3.71,3.71,0,0,0-2.44.9,4.23,4.23,0,0,0-1.42,2.23,15.52,15.52,0,0,0-.21,3.18v4.29h-1.5Z"/><path class="cls-1" d="M181.8,70.11h1.5v9.31a11,11,0,0,1-.43,3.6,4.68,4.68,0,0,1-2.05,2.48,6.74,6.74,0,0,1-3.51.87,8,8,0,0,1-2.7-.43,5.41,5.41,0,0,1-2-1.14,6.81,6.81,0,0,1-1.39-2.1h1.63a4.32,4.32,0,0,0,1.72,1.72,5.54,5.54,0,0,0,2.61.56,5.4,5.4,0,0,0,2.6-.57A3.51,3.51,0,0,0,181.35,83a6.41,6.41,0,0,0,.45-2.8v-.6a5.69,5.69,0,0,1-2.08,1.65,6.16,6.16,0,0,1-5.63-.23,5.68,5.68,0,0,1-2.19-2.15,5.88,5.88,0,0,1-.77-3,6.08,6.08,0,0,1,6-6.06,5.6,5.6,0,0,1,2.45.54,6.74,6.74,0,0,1,2.19,1.79Zm-4.44,1.15a4.75,4.75,0,0,0-2.37.62,4.48,4.48,0,0,0-1.72,1.71,4.68,4.68,0,0,0-.62,2.36,4.25,4.25,0,0,0,1.29,3.18,5.08,5.08,0,0,0,6.68,0,4.4,4.4,0,0,0,1.26-3.28,4.75,4.75,0,0,0-.58-2.36,4.23,4.23,0,0,0-1.64-1.64A4.57,4.57,0,0,0,177.37,71.26Z"/><rect class="cls-2" width="85.07" height="85.07"/><path class="cls-3" d="M18.66,76.17H15.25V50.76H7.86V47.83H26.12v2.93H18.66Z"/><path class="cls-3" d="M31.1,70.46,37,57.15l6,13.31,5.68-12h3.69L42.91,77.41,37,64.26,31.15,77.41,21.77,58.51h3.69Z"/><path class="cls-3" d="M56.47,49.71a2.26,2.26,0,0,0-2.31,2.14,2.32,2.32,0,0,0,4.62,0A2.25,2.25,0,0,0,56.47,49.71Z"/><path class="cls-3" d="M65.19,60.65h.08A6.56,6.56,0,0,1,70.71,58c5.27,0,6.49,3.54,6.49,7.68V76.17H74v-10c0-2.86-.24-5.42-4-5.42-4.46,0-4.75,3.84-4.75,7v8.38H61.94V58.51h3.25Z"/><path class="cls-3" d="M63.58,49.71a2.26,2.26,0,0,0-2.32,2.14,2.32,2.32,0,1,0,2.32-2.14Z"/><rect class="cls-3" x="54.84" y="58.51" width="3.25" height="17.67"/></g></g></svg>